<svg id="Layer_1" data-name="Layer 1" xmlns="http://www.w3.org/2000/svg" viewBox="0 0 374.31 64.88"><defs></defs><path class="cls-1" d="M23.8,21.15a2.75,2.75,0,0,0,1.47-.49l9.82,8.47a3.69,3.69,0,0,0-.55,2.08,3.77,3.77,0,1,0,1.25-2.93l-9.74-8.4a2.8,2.8,0,1,0-2.25,1.27Zm14.48,8.07a1.84,1.84,0,1,1-1.8,1.89A1.84,1.84,0,0,1,38.28,29.22Z" transform="translate(-7.8 -8.55)"/><path class="cls-1" d="M34.17,49.79a3.76,3.76,0,1,0-1.34-3.34l-18.35-.34a2.8,2.8,0,1,0,0,1.1l18.4.34A3.86,3.86,0,0,0,33.45,49L18.58,61.7a2.83,2.83,0,1,0,.69.81Zm2.4-4.74a1.84,1.84,0,1,1-1.85,1.84A1.85,1.85,0,0,1,36.57,45.05Z" transform="translate(-7.8 -8.55)"/><path class="cls-1" d="M38.24,14.8a2.32,2.32,0,0,0,.7-.05l3.28,7.66A3.76,3.76,0,0,0,44,29.33a3.77,3.77,0,0,0,.46-7.52,4,4,0,0,0-1.25.14L40,14.33a2.8,2.8,0,1,0-1.72.47Zm6.13,8.93a1.84,1.84,0,1,1-2,1.73A1.84,1.84,0,0,1,44.37,23.73Z" transform="translate(-7.8 -8.55)"/><path class="cls-1" d="M41.58,49.94A3.76,3.76,0,0,0,40,57.12L37.11,63.7a2.72,2.72,0,0,0-.63-.08,2.8,2.8,0,1,0,1.6.5l3-6.7a3.15,3.15,0,0,0,.53,0,3.76,3.76,0,1,0,0-7.52Zm0,5.6a1.84,1.84,0,1,1,1.84-1.84A1.84,1.84,0,0,1,41.58,55.54Z" transform="translate(-7.8 -8.55)"/><path class="cls-1" d="M52.39,29.82a3.77,3.77,0,0,0,1.53-7.19l2.66-8.5c.12,0,.22,0,.34,0a2.84,2.84,0,1,0-1.36-.35l-2.68,8.52a5.09,5.09,0,0,0-.56,0,3.77,3.77,0,0,0,.07,7.53Zm0-5.61a1.85,1.85,0,1,1-1.83,1.86A1.85,1.85,0,0,1,52.34,24.21Z" transform="translate(-7.8 -8.55)"/><path class="cls-1" d="M53.92,38.61a3.76,3.76,0,1,0,.43,1.72,4,4,0,0,0-.06-.69L83.6,29A2.77,2.77,0,0,0,86,30.33a2.8,2.8,0,1,0-2.81-2.79,2.85,2.85,0,0,0,0,.42ZM50.6,42.19a1.84,1.84,0,1,1,1.83-1.85A1.84,1.84,0,0,1,50.6,42.19Z" transform="translate(-7.8 -8.55)"/><path class="cls-1" d="M58.12,28.19A3.76,3.76,0,1,0,61.84,32a3.72,3.72,0,0,0-.91-2.49L69.18,20a2.81,2.81,0,1,0-.83-.72l-8.24,9.48A3.76,3.76,0,0,0,58.12,28.19Zm-.07,5.6A1.84,1.84,0,1,1,59.92,32,1.84,1.84,0,0,1,58.05,33.79Z" transform="translate(-7.8 -8.55)"/><path class="cls-1" d="M85.17,45.77a2.81,2.81,0,0,0-2.56,1.77L62.25,43.79c0-.1,0-.2,0-.3A3.76,3.76,0,1,0,62,44.86l20.39,3.76h0a2.8,2.8,0,1,0,2.75-2.85ZM58.53,45.4a1.84,1.84,0,1,1,1.81-1.88A1.84,1.84,0,0,1,58.53,45.4Z" transform="translate(-7.8 -8.55)"/><path class="cls-1" d="M54.21,67.83l-.21,0-2.51-9.26a3.76,3.76,0,1,0-1.5.31,3.59,3.59,0,0,0,.47,0L53,68.13a2.78,2.78,0,1,0,1.23-.3ZM50,57a1.84,1.84,0,1,1,1.85-1.84A1.84,1.84,0,0,1,50,57Z" transform="translate(-7.8 -8.55)"/><path class="cls-1" d="M42.41,34.49A3.75,3.75,0,0,0,39,36.72L13.39,29.54c0-.07,0-.13,0-.21a2.85,2.85,0,1,0-.32,1.27l25.59,7.18a3.76,3.76,0,1,0,3.73-3.29Zm0,5.61a1.85,1.85,0,1,1,1.84-1.84A1.84,1.84,0,0,1,42.41,40.1Z" transform="translate(-7.8 -8.55)"/><path class="cls-1" d="M72.86,60.56a2.76,2.76,0,0,0-2,.9l-10.1-7.75a3.79,3.79,0,1,0-.7.84L70.26,62.4a3,3,0,0,0-.18,1,2.81,2.81,0,1,0,2.78-2.83Zm-15.32-7a1.85,1.85,0,1,1,1.83-1.86A1.84,1.84,0,0,1,57.54,53.6Z" transform="translate(-7.8 -8.55)"/><path class="cls-1" d="M94.78,47.09a2,2,0,0,1,1-1.66,1.89,1.89,0,0,1,1.12-.35,2.26,2.26,0,0,1,1.62.74,10.18,10.18,0,0,0,3.15,2.49,9,9,0,0,0,4,.83,6.82,6.82,0,0,0,3.28-.85,3,3,0,0,0,0-5.16,16.4,16.4,0,0,0-4.23-1.62A29.53,29.53,0,0,1,100.21,40a8.09,8.09,0,0,1-3.06-2.34,6.25,6.25,0,0,1-1.25-4,6.26,6.26,0,0,1,1.25-3.86,8.25,8.25,0,0,1,3.33-2.59,10.91,10.91,0,0,1,4.52-.93,13,13,0,0,1,4.67.88,8.69,8.69,0,0,1,3.79,2.69,2.16,2.16,0,0,1,.59,1.42,2.1,2.1,0,0,1-.78,1.51,2,2,0,0,1-2.64-.15,6.93,6.93,0,0,0-2.52-1.8,8.27,8.27,0,0,0-3.3-.64,6.11,6.11,0,0,0-3.16.76,2.73,2.73,0,0,0-1.29,2.57A2.82,2.82,0,0,0,101.85,36a19,19,0,0,0,4.42,1.61,28.16,28.16,0,0,1,4.31,1.47,7.53,7.53,0,0,1,2.88,2.32,6.51,6.51,0,0,1,1.18,4,6.26,6.26,0,0,1-1.32,4A8.5,8.5,0,0,1,109.87,52a11.35,11.35,0,0,1-4.53.91,14.75,14.75,0,0,1-5.69-1.08,10.6,10.6,0,0,1-4.43-3.42A2.5,2.5,0,0,1,94.78,47.09Z" transform="translate(-7.8 -8.55)"/><path class="cls-1" d="M141.66,27.11a2.35,2.35,0,0,1,.66,1.74V50.07a2.32,2.32,0,0,1-.66,1.67,2.29,2.29,0,0,1-1.69.68,2.18,2.18,0,0,1-1.66-.66,2.31,2.31,0,0,1-.64-1.69V48.8a10.58,10.58,0,0,1-3.47,2.91,9.77,9.77,0,0,1-4.75,1.2,11.12,11.12,0,0,1-6-1.71,11.74,11.74,0,0,1-4.25-4.77,15,15,0,0,1-1.54-6.87,15,15,0,0,1,1.54-6.87,11.84,11.84,0,0,1,4.23-4.77,10.81,10.81,0,0,1,5.92-1.71,11,11,0,0,1,4.81,1.07A10,10,0,0,1,137.67,30V28.85a2.37,2.37,0,0,1,.64-1.71,2.14,2.14,0,0,1,1.66-.69A2.31,2.31,0,0,1,141.66,27.11Zm-7.58,20.32a8,8,0,0,0,2.78-3.23,11.07,11.07,0,0,0,0-9.24,8.18,8.18,0,0,0-2.78-3.25,7.2,7.2,0,0,0-4.09-1.2,7.27,7.27,0,0,0-4.08,1.17,8,8,0,0,0-2.79,3.23,11.29,11.29,0,0,0,0,9.29,7.94,7.94,0,0,0,2.79,3.23,7.66,7.66,0,0,0,8.17,0Z" transform="translate(-7.8 -8.55)"/><path class="cls-1" d="M156.57,21.41a3.87,3.87,0,0,0-.76,2.4v3.42h4.84a2.12,2.12,0,0,1,1.59.62,2.07,2.07,0,0,1,.62,1.54,2,2,0,0,1-.62,1.51,2.18,2.18,0,0,1-1.59.59h-4.84V50.07a2.32,2.32,0,0,1-.66,1.67,2.26,2.26,0,0,1-1.69.68,2.19,2.19,0,0,1-1.63-.68,2.32,2.32,0,0,1-.66-1.67V31.49h-3a2.21,2.21,0,0,1-1.56-.59,2,2,0,0,1-.64-1.51,2.05,2.05,0,0,1,.64-1.54,2.15,2.15,0,0,1,1.56-.62h3V23.81a7,7,0,0,1,2.2-5.45,8.83,8.83,0,0,1,6.21-2,6.61,6.61,0,0,1,2.93.61,2,2,0,0,1,1.27,1.83,2.15,2.15,0,0,1-.56,1.54,1.75,1.75,0,0,1-1.34.62,8.17,8.17,0,0,1-1.08-.2,7.05,7.05,0,0,0-1.86-.29A2.82,2.82,0,0,0,156.57,21.41Z" transform="translate(-7.8 -8.55)"/><path class="cls-1" d="M187.6,40.12a2.33,2.33,0,0,1-1.61.61H168.77a8.52,8.52,0,0,0,2.72,5.72,8.28,8.28,0,0,0,5.79,2.16,9,9,0,0,0,3.82-.69,9.56,9.56,0,0,0,2.59-1.76,2.79,2.79,0,0,1,1.42-.44,1.85,1.85,0,0,1,1.39.59,1.9,1.9,0,0,1,.56,1.37,2.43,2.43,0,0,1-1,1.86,11.69,11.69,0,0,1-3.77,2.39,12.36,12.36,0,0,1-4.79,1,14.14,14.14,0,0,1-7-1.66,11.56,11.56,0,0,1-4.65-4.65,13.82,13.82,0,0,1-1.64-6.75A14.91,14.91,0,0,1,166,32.64a12.3,12.3,0,0,1,4.45-4.77,11.48,11.48,0,0,1,11.81-.05,12.27,12.27,0,0,1,4.4,4.45,12.76,12.76,0,0,1,1.72,6.36A2.11,2.11,0,0,1,187.6,40.12Zm-16-8.07A7.57,7.57,0,0,0,169,36.82H183.4v-.39a6,6,0,0,0-2.33-4.26,7.39,7.39,0,0,0-4.72-1.66A7.55,7.55,0,0,0,171.61,32.05Z" transform="translate(-7.8 -8.55)"/><path class="cls-1" d="M207.46,26.87a2,2,0,0,1,.93,1.64,2.41,2.41,0,0,1-.62,1.78,2,2,0,0,1-1.49.61,4.88,4.88,0,0,1-1.32-.29,5.37,5.37,0,0,0-1.61-.34,5,5,0,0,0-3,1.05A7.78,7.78,0,0,0,198,34.2a9.19,9.19,0,0,0-.9,4.09V50.07a2.32,2.32,0,0,1-.66,1.67,2.28,2.28,0,0,1-1.69.68,2.2,2.2,0,0,1-1.66-.66,2.31,2.31,0,0,1-.64-1.69V29.14a2.31,2.31,0,0,1,.66-1.66,2.18,2.18,0,0,1,1.64-.69,2.25,2.25,0,0,1,1.69.69,2.31,2.31,0,0,1,.66,1.66v2.5a9.14,9.14,0,0,1,3.23-3.89,8.58,8.58,0,0,1,4.89-1.54A3.72,3.72,0,0,1,207.46,26.87Z" transform="translate(-7.8 -8.55)"/><path class="cls-1" d="M228,27.43c1.71.82,2.57,1.86,2.57,3.13a2.3,2.3,0,0,1-.54,1.49,1.69,1.69,0,0,1-1.37.66,2.17,2.17,0,0,1-1-.19c-.24-.13-.58-.35-1-.64a5.35,5.35,0,0,0-.93-.68,6.26,6.26,0,0,0-1.66-.49,11.13,11.13,0,0,0-2-.2,8.58,8.58,0,0,0-4.5,1.17,8,8,0,0,0-3,3.26,9.84,9.84,0,0,0-1.08,4.62,10,10,0,0,0,1.05,4.64,8,8,0,0,0,3,3.23,8.16,8.16,0,0,0,4.36,1.18,9.21,9.21,0,0,0,4.1-.79,9.63,9.63,0,0,0,.93-.63,5.81,5.81,0,0,1,.86-.59,1.87,1.87,0,0,1,.9-.19,2,2,0,0,1,1.54.61,2.21,2.21,0,0,1,.57,1.59,2.71,2.71,0,0,1-1.3,2A10.29,10.29,0,0,1,226,52.27a16.37,16.37,0,0,1-4.67.64,12.29,12.29,0,0,1-6.56-1.74,11.51,11.51,0,0,1-4.37-4.79,14.9,14.9,0,0,1-1.54-6.82,14.3,14.3,0,0,1,1.61-6.82,12.11,12.11,0,0,1,4.5-4.8,12.6,12.6,0,0,1,6.6-1.73A15,15,0,0,1,228,27.43Z" transform="translate(-7.8 -8.55)"/><path class="cls-1" d="M256.85,46.45a12.39,12.39,0,0,1-4.67,4.75,13.32,13.32,0,0,1-13.06,0,12.39,12.39,0,0,1-4.67-4.75,13.67,13.67,0,0,1-1.71-6.84,14,14,0,0,1,1.71-6.9,12.36,12.36,0,0,1,4.67-4.79,13.32,13.32,0,0,1,13.06,0,12.36,12.36,0,0,1,4.67,4.79,14,14,0,0,1,1.71,6.9A13.67,13.67,0,0,1,256.85,46.45Zm-4-11.56a8.19,8.19,0,0,0-3-3.23,8.17,8.17,0,0,0-8.36,0,8.1,8.1,0,0,0-3,3.23,9.84,9.84,0,0,0-1.1,4.72,9.58,9.58,0,0,0,1.1,4.64,8.18,8.18,0,0,0,3,3.21,8.17,8.17,0,0,0,8.36,0,8.27,8.27,0,0,0,3-3.21,9.7,9.7,0,0,0,1.1-4.64A10,10,0,0,0,252.82,34.89Z" transform="translate(-7.8 -8.55)"/><path class="cls-1" d="M284.58,36.77v13.3a2.32,2.32,0,0,1-.66,1.67,2.26,2.26,0,0,1-1.69.68,2.21,2.21,0,0,1-1.64-.68,2.32,2.32,0,0,1-.66-1.67V36.82a7.35,7.35,0,0,0-1.32-4.6,5.09,5.09,0,0,0-4.3-1.71,7.4,7.4,0,0,0-3.55.86,6.43,6.43,0,0,0-2.49,2.3,5.83,5.83,0,0,0-.9,3.15V50.07a2.32,2.32,0,0,1-.66,1.67,2.29,2.29,0,0,1-1.69.68,2.18,2.18,0,0,1-1.66-.66,2.31,2.31,0,0,1-.64-1.69V29.14a2.31,2.31,0,0,1,.66-1.66,2.18,2.18,0,0,1,1.64-.69,2.26,2.26,0,0,1,1.69.69,2.31,2.31,0,0,1,.66,1.66v1.71a10.45,10.45,0,0,1,3.54-3.3,9.48,9.48,0,0,1,4.87-1.34Q284.58,26.21,284.58,36.77Z" transform="translate(-7.8 -8.55)"/><path class="cls-1" d="M297.25,31.34V45.92c0,1.63.73,2.44,2.2,2.44a3.85,3.85,0,0,0,.93-.17,3.71,3.71,0,0,1,.92-.17,1.34,1.34,0,0,1,1.08.54,2.06,2.06,0,0,1-.73,3.13,4.88,4.88,0,0,1-2.64.73,11.86,11.86,0,0,1-3-.34,4.39,4.39,0,0,1-2.4-1.74,7,7,0,0,1-1-4.23V31.34h-2.84a2.09,2.09,0,0,1-2.15-2.15,2,2,0,0,1,.61-1.52,2.14,2.14,0,0,1,1.54-.58h2.84V23a2.29,2.29,0,0,1,.66-1.66,2.23,2.23,0,0,1,1.69-.69,2.18,2.18,0,0,1,1.64.69,2.29,2.29,0,0,1,.66,1.66v4.11h4.05a2.09,2.09,0,0,1,2.16,2.15,2.06,2.06,0,0,1-.61,1.52,2.16,2.16,0,0,1-1.55.58Z" transform="translate(-7.8 -8.55)"/><path class="cls-1" d="M330.13,27.11a2.35,2.35,0,0,1,.66,1.74V50.07a2.32,2.32,0,0,1-.66,1.67,2.25,2.25,0,0,1-1.68.68,2.22,2.22,0,0,1-1.67-.66,2.34,2.34,0,0,1-.63-1.69V48.8a10.58,10.58,0,0,1-3.47,2.91,9.77,9.77,0,0,1-4.75,1.2,11.09,11.09,0,0,1-6-1.71,11.67,11.67,0,0,1-4.25-4.77,15,15,0,0,1-1.54-6.87,15,15,0,0,1,1.54-6.87,11.69,11.69,0,0,1,4.23-4.77,10.79,10.79,0,0,1,5.92-1.71,11,11,0,0,1,4.81,1.07A10,10,0,0,1,326.15,30V28.85a2.41,2.41,0,0,1,.63-1.71,2.17,2.17,0,0,1,1.67-.69A2.28,2.28,0,0,1,330.13,27.11Zm-7.58,20.32a7.94,7.94,0,0,0,2.79-3.23,11.17,11.17,0,0,0,0-9.24,8.13,8.13,0,0,0-2.79-3.25,7.14,7.14,0,0,0-4.08-1.2,7.27,7.27,0,0,0-4.08,1.17,8,8,0,0,0-2.79,3.23,11.29,11.29,0,0,0,0,9.29,7.94,7.94,0,0,0,2.79,3.23,7.64,7.64,0,0,0,8.16,0Z" transform="translate(-7.8 -8.55)"/><path class="cls-1" d="M354.05,27.43c1.71.82,2.57,1.86,2.57,3.13a2.3,2.3,0,0,1-.54,1.49,1.7,1.7,0,0,1-1.37.66,2.14,2.14,0,0,1-1-.19c-.25-.13-.58-.35-1-.64a4.66,4.66,0,0,0-.93-.68,6.15,6.15,0,0,0-1.66-.49,11.12,11.12,0,0,0-1.95-.2,8.58,8.58,0,0,0-4.5,1.17,8,8,0,0,0-3,3.26,10.64,10.64,0,0,0,0,9.26,8,8,0,0,0,3,3.23,8.15,8.15,0,0,0,4.35,1.18,9.22,9.22,0,0,0,4.11-.79,9.63,9.63,0,0,0,.93-.63,5.79,5.79,0,0,1,.85-.59,1.94,1.94,0,0,1,.91-.19,2,2,0,0,1,1.54.61,2.25,2.25,0,0,1,.56,1.59,2.7,2.7,0,0,1-1.29,2A10.44,10.44,0,0,1,352,52.27a16.32,16.32,0,0,1-4.67.64,12.28,12.28,0,0,1-6.55-1.74,11.6,11.6,0,0,1-4.38-4.79,15,15,0,0,1-1.54-6.82,14.31,14.31,0,0,1,1.62-6.82,12,12,0,0,1,4.5-4.8,12.6,12.6,0,0,1,6.6-1.73A15,15,0,0,1,354.05,27.43Z" transform="translate(-7.8 -8.55)"/><path class="cls-1" d="M367.33,31.34V45.92c0,1.63.73,2.44,2.2,2.44a3.77,3.77,0,0,0,.93-.17,3.71,3.71,0,0,1,.92-.17,1.34,1.34,0,0,1,1.08.54,2.05,2.05,0,0,1,.44,1.37,2.1,2.1,0,0,1-1.17,1.76,4.88,4.88,0,0,1-2.64.73,11.86,11.86,0,0,1-3-.34,4.39,4.39,0,0,1-2.4-1.74,7,7,0,0,1-1.05-4.23V31.34h-2.84a2.09,2.09,0,0,1-2.15-2.15,2,2,0,0,1,.61-1.52,2.14,2.14,0,0,1,1.54-.58h2.84V23a2.29,2.29,0,0,1,.66-1.66,2.23,2.23,0,0,1,1.69-.69,2.18,2.18,0,0,1,1.64.69,2.29,2.29,0,0,1,.66,1.66v4.11h4.05a2.09,2.09,0,0,1,2.16,2.15,2.06,2.06,0,0,1-.61,1.52,2.16,2.16,0,0,1-1.55.58Z" transform="translate(-7.8 -8.55)"/><path class="cls-1" d="M377.13,18.14a.25.25,0,0,1,.09.2.29.29,0,0,1-.08.21.28.28,0,0,1-.21.08h-1.07v3.23a.29.29,0,0,1-.08.22.31.31,0,0,1-.22.08.28.28,0,0,1-.29-.3V18.63h-1a.27.27,0,0,1-.2-.08.3.3,0,0,1,0-.42.31.31,0,0,1,.21-.07h2.64A.3.3,0,0,1,377.13,18.14Zm4.89,0a.29.29,0,0,1,.09.21V22a.26.26,0,0,1-.1.21.31.31,0,0,1-.23.08.27.27,0,0,1-.22-.08.26.26,0,0,1-.09-.21V19.24l-1.25,2.12a.25.25,0,0,1-.25.12.26.26,0,0,1-.25-.12l-1.13-2V22a.41.41,0,0,1-.1.21.26.26,0,0,1-.22.08A.28.28,0,0,1,378,22V18.35a.32.32,0,0,1,.08-.2.29.29,0,0,1,.21-.09.38.38,0,0,1,.33.16L380,20.65l1.49-2.43a.35.35,0,0,1,.3-.16A.39.39,0,0,1,382,18.14Z" transform="translate(-7.8 -8.55)"/></svg>