<svg id="Layer_1" data-name="Layer 1" xmlns="http://www.w3.org/2000/svg" viewBox="0 0 239.86 20.35"><defs></defs><path class="cls-1" d="M15.45,31.48a8,8,0,0,1-2.61-1.62,1.28,1.28,0,0,1-.51-1,1.15,1.15,0,0,1,.34-.79,1.08,1.08,0,0,1,.81-.35,1.05,1.05,0,0,1,.71.26,6.56,6.56,0,0,0,2,1.33,6,6,0,0,0,2.35.43,4.59,4.59,0,0,0,2.6-.71,2.09,2.09,0,0,0,1.06-1.78,2.29,2.29,0,0,0-1.06-2A9.6,9.6,0,0,0,18,24.13a8.37,8.37,0,0,1-3.86-1.68,4,4,0,0,1-1.36-3.24,4.27,4.27,0,0,1,.76-2.53A4.85,4.85,0,0,1,15.62,15a7.55,7.55,0,0,1,3-.58,8.36,8.36,0,0,1,2.85.48,6,6,0,0,1,2.17,1.3,1.36,1.36,0,0,1,.56,1,1.07,1.07,0,0,1-.33.78,1.05,1.05,0,0,1-.79.35.82.82,0,0,1-.56-.2,5,5,0,0,0-1.76-1.07,5.89,5.89,0,0,0-2.14-.44,4.45,4.45,0,0,0-2.6.67,2.17,2.17,0,0,0,0,3.6A9.05,9.05,0,0,0,18.92,22,15.28,15.28,0,0,1,22,23a4.34,4.34,0,0,1,1.86,1.56,4.63,4.63,0,0,1,.66,2.61,4.17,4.17,0,0,1-.79,2.51,5.18,5.18,0,0,1-2.16,1.7,7.22,7.22,0,0,1-3,.61A9,9,0,0,1,15.45,31.48Z" transform="translate(-12.33 -11.63)"/><path class="cls-1" d="M40.26,30.57a1.1,1.1,0,0,1-.41.88,1.41,1.41,0,0,1-.91.34,1.11,1.11,0,0,1-.86-.44l-5.92-7.63L29.43,26.3v4.24a1.16,1.16,0,0,1-1.22,1.2,1.15,1.15,0,0,1-.87-.34,1.18,1.18,0,0,1-.33-.86V15.84a1.16,1.16,0,0,1,.34-.83,1.31,1.31,0,0,1,1.75,0,1.14,1.14,0,0,1,.33.84v7.58L38.08,15a1.4,1.4,0,0,1,.93-.42,1,1,0,0,1,.76.37,1.06,1.06,0,0,1,0,1.53L34,22l6,7.77A1.28,1.28,0,0,1,40.26,30.57Z" transform="translate(-12.33 -11.63)"/><path class="cls-1" d="M54.57,16.5l-5.24,7.39v6.68a1.16,1.16,0,0,1-.33.83,1.07,1.07,0,0,1-.8.34,1.13,1.13,0,0,1-.83-.34,1.17,1.17,0,0,1-.34-.83V23.69l-5.22-7a1.45,1.45,0,0,1-.34-.87,1.06,1.06,0,0,1,.39-.83,1.27,1.27,0,0,1,.86-.34,1.16,1.16,0,0,1,1,.53l4.58,6.34,4.42-6.31a1.13,1.13,0,0,1,1-.56,1.1,1.1,0,0,1,.81.34,1.16,1.16,0,0,1,.34.83A1.4,1.4,0,0,1,54.57,16.5Z" transform="translate(-12.33 -11.63)"/><path class="cls-1" d="M66.87,29.79a1.1,1.1,0,0,1,.33.83,1.06,1.06,0,0,1-.33.8,1.17,1.17,0,0,1-.84.32H57.79A1.11,1.11,0,0,1,57,31.4a1.16,1.16,0,0,1-.33-.83V15.84A1.12,1.12,0,0,1,57,15a1.18,1.18,0,0,1,.88-.34,1.17,1.17,0,0,1,.84.34,1.13,1.13,0,0,1,.35.83V29.47h7A1.17,1.17,0,0,1,66.87,29.79Z" transform="translate(-12.33 -11.63)"/><path class="cls-1" d="M79.47,16.5l-5.25,7.39v6.68a1.16,1.16,0,0,1-.33.83,1,1,0,0,1-.79.34,1.16,1.16,0,0,1-1.17-1.17V23.69l-5.22-7a1.39,1.39,0,0,1-.34-.87,1.06,1.06,0,0,1,.39-.83,1.26,1.26,0,0,1,.85-.34,1.17,1.17,0,0,1,1,.53l4.58,6.34,4.41-6.31a1.15,1.15,0,0,1,1-.56,1.07,1.07,0,0,1,.8.34,1.13,1.13,0,0,1,.35.83A1.5,1.5,0,0,1,79.47,16.5Z" transform="translate(-12.33 -11.63)"/><path class="cls-1" d="M93.67,15a1.08,1.08,0,0,1,.33.82,1,1,0,0,1-.33.81,1.24,1.24,0,0,1-.84.29H88.49V30.57a1.14,1.14,0,0,1-.35.83,1.25,1.25,0,0,1-.9.34,1.2,1.2,0,0,1-.88-.34,1.11,1.11,0,0,1-.36-.83V16.89H81.68a1.16,1.16,0,0,1-.84-.31,1.15,1.15,0,0,1,0-1.61,1.2,1.2,0,0,1,.84-.3H92.83A1.2,1.2,0,0,1,93.67,15Z" transform="translate(-12.33 -11.63)"/><path class="cls-1" d="M98.24,31.4a1.18,1.18,0,0,1-.85.34,1.15,1.15,0,0,1-.87-.34,1.18,1.18,0,0,1-.32-.86V15.84a1.12,1.12,0,0,1,.34-.83,1.16,1.16,0,0,1,.87-.34,1.18,1.18,0,0,1,.85.34,1.13,1.13,0,0,1,.35.83v14.7A1.11,1.11,0,0,1,98.24,31.4Z" transform="translate(-12.33 -11.63)"/><path class="cls-1" d="M114.8,16.64a1.28,1.28,0,0,1-.29.81,1,1,0,0,1-.81.39,1.4,1.4,0,0,1-.65-.17,6.54,6.54,0,0,0-3.27-.85,6.32,6.32,0,0,0-3.23.8,5.61,5.61,0,0,0-2.19,2.26,6.87,6.87,0,0,0-.78,3.32,7.09,7.09,0,0,0,.81,3.49,5.36,5.36,0,0,0,2.22,2.23,6.44,6.44,0,0,0,3.17.77,6.21,6.21,0,0,0,3.27-.88,1.46,1.46,0,0,1,.63-.14,1,1,0,0,1,.85.41,1.23,1.23,0,0,1,.3.78,1.07,1.07,0,0,1-.16.55,1.1,1.1,0,0,1-.43.4A9.27,9.27,0,0,1,109.78,32a9.21,9.21,0,0,1-4.36-1.05,7.91,7.91,0,0,1-3.17-3,9.15,9.15,0,0,1-1.18-4.69,8.8,8.8,0,0,1,1.14-4.45,8.2,8.2,0,0,1,3.12-3.12,9.17,9.17,0,0,1,8.89,0A1,1,0,0,1,114.8,16.64Z" transform="translate(-12.33 -11.63)"/><path class="cls-1" d="M119,31.48a8,8,0,0,1-2.61-1.62,1.28,1.28,0,0,1-.51-1,1.11,1.11,0,0,1,.34-.79,1.07,1.07,0,0,1,.8-.35,1,1,0,0,1,.71.26,6.56,6.56,0,0,0,2,1.33,6.06,6.06,0,0,0,2.36.43,4.56,4.56,0,0,0,2.59-.71,2.07,2.07,0,0,0,1.06-1.78,2.27,2.27,0,0,0-1.06-2,9.53,9.53,0,0,0-3.15-1.16,8.37,8.37,0,0,1-3.87-1.68,4.06,4.06,0,0,1-1.35-3.24,4.34,4.34,0,0,1,.75-2.53,4.94,4.94,0,0,1,2.1-1.67,7.46,7.46,0,0,1,3-.58,8.46,8.46,0,0,1,2.86.48,6.06,6.06,0,0,1,2.17,1.3,1.39,1.39,0,0,1,.56,1,1.07,1.07,0,0,1-.33.78,1.05,1.05,0,0,1-.79.35.8.8,0,0,1-.56-.2,5.12,5.12,0,0,0-1.76-1.07,5.94,5.94,0,0,0-2.15-.44,4.42,4.42,0,0,0-2.59.67,2.15,2.15,0,0,0,0,3.6A9,9,0,0,0,122.48,22a14.88,14.88,0,0,1,3.11,1,4.31,4.31,0,0,1,1.87,1.56,4.63,4.63,0,0,1,.65,2.61,4.17,4.17,0,0,1-.79,2.51,5.22,5.22,0,0,1-2.15,1.7,7.3,7.3,0,0,1-3,.61A9,9,0,0,1,119,31.48Z" transform="translate(-12.33 -11.63)"/><path class="cls-1" d="M139.68,16.46a5,5,0,1,1-4.91-4.83A4.86,4.86,0,0,1,139.68,16.46Zm-8.68,0a3.76,3.76,0,0,0,3.77,3.86,3.7,3.7,0,0,0,3.68-3.83,3.73,3.73,0,1,0-7.45,0Zm3,2.5h-1.12V14.14a12.83,12.83,0,0,1,1.86-.15,2.63,2.63,0,0,1,1.65.38,1.23,1.23,0,0,1,.5,1,1.26,1.26,0,0,1-1,1.15v.06c.47.15.7.53.85,1.18a4.29,4.29,0,0,0,.35,1.17h-1.17a3.72,3.72,0,0,1-.39-1.17c-.09-.5-.38-.74-1-.74H134Zm0-2.71h.53c.62,0,1.12-.2,1.12-.7s-.32-.74-1-.74a2.63,2.63,0,0,0-.62.06Z" transform="translate(-12.33 -11.63)"/><path class="cls-1" d="M160.16,15.82a7.09,7.09,0,0,1,2.46,3.08,10.88,10.88,0,0,1,.83,4.3,10.93,10.93,0,0,1-.83,4.33,7,7,0,0,1-2.46,3.08,6.76,6.76,0,0,1-3.93,1.13h-6a1.12,1.12,0,0,1-.83-.34,1.13,1.13,0,0,1-.34-.83V15.84a1.16,1.16,0,0,1,1.17-1.17h6A6.63,6.63,0,0,1,160.16,15.82Zm-.44,11.91A7.69,7.69,0,0,0,161,23.2a7.63,7.63,0,0,0-1.26-4.51A4.25,4.25,0,0,0,156,16.91h-4.52V29.5H156A4.27,4.27,0,0,0,159.72,27.73Z" transform="translate(-12.33 -11.63)"/><path class="cls-1" d="M179,30.69a1.09,1.09,0,0,1-1.1,1.12,1,1,0,0,1-.62-.2,1.4,1.4,0,0,1-.45-.58l-1.52-3.58h-7.53l-1.49,3.61a1.06,1.06,0,0,1-.4.56,1.08,1.08,0,0,1-.62.19,1,1,0,0,1-.78-.27,1,1,0,0,1-.27-.73,2.18,2.18,0,0,1,.05-.39l6.22-15.07a1.36,1.36,0,0,1,.47-.6,1,1,0,0,1,.7-.15,1.13,1.13,0,0,1,.65.19,1,1,0,0,1,.42.56l6.19,14.88A1.39,1.39,0,0,1,179,30.69Zm-10.29-5.46h5.68l-2.86-6.83Z" transform="translate(-12.33 -11.63)"/><path class="cls-1" d="M191.55,15a1.08,1.08,0,0,1,.33.82,1,1,0,0,1-.33.81,1.24,1.24,0,0,1-.84.29h-4.34V30.57a1.14,1.14,0,0,1-.35.83,1.24,1.24,0,0,1-.89.34,1.21,1.21,0,0,1-.89-.34,1.11,1.11,0,0,1-.36-.83V16.89h-4.31a1.15,1.15,0,0,1-.84-.31,1.15,1.15,0,0,1,0-1.61,1.18,1.18,0,0,1,.84-.3h11.14A1.2,1.2,0,0,1,191.55,15Z" transform="translate(-12.33 -11.63)"/><path class="cls-1" d="M206.05,30.69a1.09,1.09,0,0,1-1.1,1.12,1.07,1.07,0,0,1-.62-.2,1.4,1.4,0,0,1-.45-.58l-1.51-3.58h-7.54l-1.49,3.61a1.06,1.06,0,0,1-.4.56,1,1,0,0,1-.62.19,1.06,1.06,0,0,1-.78-.27,1,1,0,0,1-.27-.73c0-.06,0-.19,0-.39l6.22-15.07a1.31,1.31,0,0,1,.48-.6,1,1,0,0,1,.69-.15,1.18,1.18,0,0,1,.66.19,1.07,1.07,0,0,1,.41.56L206,30.23A1.39,1.39,0,0,1,206.05,30.69Zm-10.29-5.46h5.68l-2.85-6.83Z" transform="translate(-12.33 -11.63)"/><path class="cls-1" d="M224.3,29.79a1.1,1.1,0,0,1,.33.83,1.06,1.06,0,0,1-.33.8,1.17,1.17,0,0,1-.84.32h-8.24a1.11,1.11,0,0,1-.84-.34,1.16,1.16,0,0,1-.33-.83V15.84a1.12,1.12,0,0,1,.34-.83,1.18,1.18,0,0,1,.88-.34,1.17,1.17,0,0,1,.84.34,1.13,1.13,0,0,1,.35.83V29.47h7A1.17,1.17,0,0,1,224.3,29.79Z" transform="translate(-12.33 -11.63)"/><path class="cls-1" d="M237.11,29.79a1.09,1.09,0,0,1,.32.83,1.06,1.06,0,0,1-.32.8,1.18,1.18,0,0,1-.85.32H228a1.11,1.11,0,0,1-.84-.34,1.16,1.16,0,0,1-.33-.83V15.84a1.16,1.16,0,0,1,.34-.83,1.18,1.18,0,0,1,.88-.34,1.14,1.14,0,0,1,.84.34,1.1,1.1,0,0,1,.36.83V29.47h7A1.18,1.18,0,0,1,237.11,29.79Z" transform="translate(-12.33 -11.63)"/><path class="cls-1" d="M252.16,16.64a1.22,1.22,0,0,1-.29.81.94.94,0,0,1-.8.39,1.41,1.41,0,0,1-.66-.17,6.54,6.54,0,0,0-3.27-.85,6.32,6.32,0,0,0-3.23.8,5.58,5.58,0,0,0-2.18,2.26A6.87,6.87,0,0,0,241,23.2a7.09,7.09,0,0,0,.8,3.49A5.48,5.48,0,0,0,244,28.92a6.44,6.44,0,0,0,3.17.77,6.21,6.21,0,0,0,3.27-.88,1.46,1.46,0,0,1,.63-.14,1,1,0,0,1,.86.41,1.28,1.28,0,0,1,.29.78,1.07,1.07,0,0,1-.16.55,1.1,1.1,0,0,1-.43.4,8.87,8.87,0,0,1-2.13.86,9.31,9.31,0,0,1-6.68-.74,7.79,7.79,0,0,1-3.17-3,9.06,9.06,0,0,1-1.19-4.69,8.8,8.8,0,0,1,1.14-4.45,8.2,8.2,0,0,1,3.12-3.12,9.17,9.17,0,0,1,8.89,0A1,1,0,0,1,252.16,16.64Z" transform="translate(-12.33 -11.63)"/></svg>