<?xml version="1.0" encoding="utf-8"?>
<!-- Generator: Adobe Illustrator 24.3.0, SVG Export Plug-In . SVG Version: 6.00 Build 0)  -->
<svg version="1.1" id="Layer_1" xmlns="http://www.w3.org/2000/svg" xmlns:xlink="http://www.w3.org/1999/xlink" x="0px" y="0px"
	 viewBox="0 0 557.8 96.7" style="enable-background:new 0 0 557.8 96.7;" xml:space="preserve">
<g id="Layer_2_1_">
	<g id="Layer_1-2">
		<path d="M23.8,18.8c0.8,0,1.5-0.3,2.2-0.8l14.7,12.7c-1.6,2.7-0.8,6.1,1.9,7.7s6.1,0.8,7.7-1.9s0.8-6.1-1.9-7.7
			c-2.1-1.3-4.8-1-6.7,0.6L27.2,16.9c1.3-1.9,0.7-4.5-1.2-5.8s-4.5-0.7-5.8,1.2s-0.7,4.5,1.2,5.8C22.1,18.6,23,18.8,23.8,18.8z
			 M45.4,30.8c1.5,0,2.8,1.2,2.8,2.7c0,1.5-1.2,2.8-2.7,2.8c-1.5,0-2.8-1.2-2.8-2.7c0,0,0,0,0,0C42.7,32.1,43.9,30.8,45.4,30.8
			C45.4,30.8,45.4,30.8,45.4,30.8L45.4,30.8z"/>
		<path d="M39.3,61.5c1,0.8,2.3,1.3,3.6,1.3c3.1,0,5.6-2.5,5.6-5.6c0-3.1-2.5-5.6-5.6-5.6c-2.8,0-5.2,2.1-5.6,5L10,56
			c-0.5-2.3-2.7-3.7-4.9-3.3c-2.3,0.5-3.7,2.7-3.3,4.9s2.7,3.7,4.9,3.3c1.7-0.3,3-1.6,3.3-3.3l27.4,0.5c0.1,0.8,0.4,1.5,0.9,2.2
			L16.1,79.2c-1.8-1.4-4.4-1.1-5.9,0.7s-1.1,4.4,0.7,5.9c1.8,1.4,4.4,1.1,5.9-0.7c0.6-0.7,0.9-1.7,0.9-2.6c0-0.7-0.2-1.4-0.6-2
			L39.3,61.5z M42.9,54.4c1.5,0,2.7,1.2,2.7,2.8c0,1.5-1.2,2.7-2.8,2.7c-1.5,0-2.7-1.2-2.7-2.8c0,0,0,0,0,0
			C40.1,55.6,41.3,54.4,42.9,54.4C42.9,54.4,42.9,54.4,42.9,54.4z"/>
		<path d="M45.4,9.3c0.3,0,0.7,0,1-0.1l4.9,11.4c-2.7,1.6-3.5,5.1-1.9,7.8c1.6,2.7,5.1,3.5,7.8,1.9
			c2.7-1.6,3.5-5.1,1.9-7.8c-1.3-2.2-3.9-3.2-6.3-2.5L47.9,8.6c1.9-1.3,2.4-3.9,1.1-5.8c-1.3-1.9-3.9-2.4-5.8-1.1s-2.4,3.9-1.1,5.8
			C42.9,8.6,44.1,9.2,45.4,9.3z M54.5,22.6c1.5,0.1,2.7,1.4,2.6,2.9c-0.1,1.5-1.4,2.7-2.9,2.6c-1.5-0.1-2.7-1.4-2.6-2.9c0,0,0,0,0,0
			C51.7,23.7,53,22.5,54.5,22.6C54.5,22.6,54.5,22.6,54.5,22.6z"/>
		<path d="M50.3,61.7c-3.1,0-5.6,2.5-5.6,5.6c0,2.2,1.3,4.2,3.3,5.2l-4.3,9.8c-0.3-0.1-0.7-0.1-1-0.1
			c-2.3,0-4.2,1.9-4.2,4.2c0,2.3,1.9,4.2,4.2,4.2c2.3,0,4.2-1.9,4.2-4.2c0-1.4-0.7-2.6-1.8-3.4l4.4-10c0.3,0,0.5,0.1,0.8,0.1
			c3.1,0,5.6-2.5,5.6-5.6S53.4,61.7,50.3,61.7L50.3,61.7z M50.3,70c-1.5,0-2.8-1.2-2.8-2.7c0-1.5,1.2-2.8,2.7-2.8
			c1.5,0,2.8,1.2,2.8,2.7c0,0,0,0,0,0C53.1,68.8,51.8,70,50.3,70L50.3,70z"/>
		<path d="M66.4,31.7c3.1-0.1,5.6-2.6,5.5-5.7c0-2.1-1.3-4.1-3.2-5l4-12.7c0.2,0,0.3,0,0.5,0c2.3,0,4.2-1.9,4.2-4.2
			c0-2.3-1.9-4.2-4.2-4.2c-2.3,0-4.2,1.9-4.2,4.2c0,1.6,0.8,3,2.2,3.7l-4,12.7c-0.3,0-0.6-0.1-0.8-0.1c-3.1,0-5.6,2.6-5.6,5.7
			S63.4,31.7,66.4,31.7L66.4,31.7L66.4,31.7z M66.4,23.3c1.5,0,2.8,1.2,2.8,2.7s-1.2,2.8-2.7,2.8c-1.5,0-2.8-1.2-2.8-2.7
			C63.6,24.6,64.9,23.3,66.4,23.3C66.4,23.3,66.4,23.3,66.4,23.3z"/>
		<path d="M68.7,44.8c-1.4-2.7-4.8-3.8-7.5-2.3c-2.7,1.4-3.8,4.8-2.3,7.5c1.4,2.7,4.8,3.8,7.5,2.3c1.8-1,3-2.9,3-5
			c0-0.3,0-0.7-0.1-1L113,30.5c1.3,2.1,4,2.9,6.2,1.6c2.1-1.3,2.9-4,1.6-6.2c-1.3-2.1-4-2.9-6.2-1.6c-1.6,0.9-2.5,2.8-2.2,4.6
			L68.7,44.8z M63.7,50.1c-1.5,0-2.8-1.2-2.8-2.7c0-1.5,1.2-2.8,2.7-2.8s2.8,1.2,2.8,2.7c0,0,0,0,0,0C66.5,48.9,65.3,50.1,63.7,50.1
			L63.7,50.1z"/>
		<path d="M75,29.3c-3.1-0.1-5.7,2.4-5.8,5.5c-0.1,3.1,2.4,5.7,5.5,5.8c3.1,0.1,5.7-2.4,5.8-5.5c0-1.4-0.4-2.7-1.3-3.8
			l12.3-14.1c0.6,0.4,1.3,0.5,2,0.6c2.3,0.1,4.3-1.8,4.3-4.1S96,9.3,93.7,9.2c-2.3-0.1-4.3,1.8-4.3,4.1c0,1,0.3,1.9,0.9,2.7L78,30.1
			C77.1,29.6,76.1,29.3,75,29.3z M74.9,37.6c-1.5,0-2.7-1.3-2.7-2.8c0-1.5,1.3-2.7,2.8-2.7c1.5,0,2.7,1.3,2.7,2.8c0,0,0,0,0,0
			C77.6,36.4,76.4,37.6,74.9,37.6z"/>
		<path d="M115.3,55.5c-1.7,0-3.2,1.1-3.8,2.6l-30.3-5.6c0-0.1,0-0.3,0-0.5c0-3.1-2.6-5.6-5.7-5.6
			c-3.1,0-5.6,2.6-5.6,5.7c0,3.1,2.6,5.6,5.7,5.6c2.3,0,4.4-1.5,5.2-3.7l30.4,5.6l0,0c0,2.3,2,4.1,4.3,4.1c2.3,0,4.1-2,4.1-4.3
			C119.5,57.2,117.6,55.4,115.3,55.5L115.3,55.5z M75.6,54.9c-1.5,0-2.8-1.2-2.8-2.7c0-1.5,1.2-2.8,2.7-2.8c1.5,0,2.8,1.2,2.8,2.7
			c0,0,0,0,0,0C78.3,53.6,77.1,54.9,75.6,54.9z"/>
		<path d="M69.2,88.3c-0.1,0-0.2,0-0.3,0l-3.8-13.8c2.8-1.2,4.2-4.5,2.9-7.4s-4.5-4.2-7.4-2.9c-2.8,1.2-4.2,4.5-2.9,7.4
			c0.9,2.1,2.9,3.4,5.1,3.4c0.2,0,0.5,0,0.7,0l3.8,13.8c-2,1-2.8,3.5-1.8,5.6c1,2,3.5,2.8,5.6,1.8c2-1,2.8-3.5,1.8-5.6
			C72.2,89.2,70.7,88.4,69.2,88.3L69.2,88.3z M62.9,72.2c-1.5,0-2.8-1.2-2.8-2.7c0-1.5,1.2-2.8,2.7-2.8s2.8,1.2,2.8,2.7c0,0,0,0,0,0
			C65.6,70.9,64.4,72.2,62.9,72.2z"/>
		<path d="M51.6,38.7c-2.2,0-4.2,1.3-5.1,3.3L8.3,31.3c0-0.1,0-0.2,0-0.3c0-2.3-1.8-4.3-4.2-4.3s-4.3,1.8-4.3,4.2
			s1.8,4.3,4.2,4.3c1.6,0,3.1-0.9,3.8-2.3L46,43.5c-0.4,3.1,1.8,5.9,4.9,6.3c3.1,0.4,5.9-1.8,6.3-4.9c0.4-3.1-1.8-5.9-4.9-6.3
			C52,38.7,51.8,38.6,51.6,38.7L51.6,38.7z M51.6,47c-1.5,0-2.8-1.2-2.8-2.7c0-1.5,1.2-2.8,2.7-2.8c1.5,0,2.8,1.2,2.8,2.7
			c0,0,0,0,0,0C54.3,45.8,53.1,47,51.6,47L51.6,47z"/>
		<path d="M97,77.5c-1.1,0-2.2,0.5-3,1.3L79,67.3c0.6-0.9,0.8-1.9,0.8-3c0-3.1-2.6-5.6-5.7-5.6c-3.1,0-5.6,2.6-5.6,5.7
			c0,3.1,2.6,5.6,5.7,5.6c1.4,0,2.7-0.5,3.7-1.4l15.1,11.7c-0.2,0.5-0.3,1-0.3,1.5c0,2.3,1.9,4.2,4.2,4.1c2.3,0,4.2-1.9,4.1-4.2
			C101.2,79.3,99.3,77.5,97,77.5z M74.1,67.1c-1.5,0-2.8-1.2-2.8-2.7c0-1.5,1.2-2.8,2.7-2.8c1.5,0,2.8,1.2,2.8,2.7c0,0,0,0,0,0
			C76.9,65.9,75.6,67.1,74.1,67.1z"/>
		<path d="M129.6,57.4c0.1-1,0.6-1.9,1.5-2.4c0.5-0.3,1.1-0.5,1.7-0.5c0.9,0,1.8,0.4,2.4,1.1c1.3,1.5,2.9,2.8,4.7,3.7
			c1.9,0.9,3.9,1.3,6,1.2c1.7,0,3.4-0.5,4.9-1.3c1.4-0.8,2.2-2.3,2.1-3.9c0.1-1.6-0.8-3-2.1-3.8c-2-1.1-4.1-1.9-6.3-2.4
			c-2.3-0.6-4.6-1.4-6.8-2.3c-1.8-0.8-3.3-2-4.6-3.5c-1.3-1.7-2-3.8-1.9-6c0-2.1,0.6-4.1,1.9-5.8c1.3-1.7,3-3,5-3.9
			c2.1-0.9,4.4-1.4,6.7-1.4c2.4,0,4.8,0.4,7,1.3c2.2,0.8,4.2,2.2,5.6,4c0.5,0.6,0.9,1.3,0.9,2.1c-0.1,0.9-0.5,1.7-1.2,2.2
			c-0.5,0.4-1.2,0.7-1.8,0.7c-0.8,0-1.6-0.3-2.1-0.9c-1-1.2-2.3-2.1-3.8-2.7c-1.6-0.6-3.2-1-4.9-0.9c-1.6-0.1-3.3,0.3-4.7,1.1
			c-1.3,0.8-2.1,2.3-1.9,3.8c0,1.6,0.8,3,2.2,3.8c2.1,1.1,4.3,1.9,6.6,2.4c2.2,0.6,4.3,1.3,6.4,2.2c1.7,0.8,3.2,2,4.3,3.5
			c1.2,1.7,1.9,3.9,1.8,6c0,2.2-0.7,4.3-2,5.9c-1.3,1.7-3.1,3-5.1,3.9c-2.1,0.9-4.4,1.4-6.8,1.3c-2.9,0-5.8-0.5-8.5-1.6
			c-2.6-1.1-4.9-2.8-6.6-5.1C129.9,58.8,129.6,58.1,129.6,57.4z"/>
		<path d="M199.5,27.6c0.7,0.7,1,1.6,1,2.6v31.6c0,0.9-0.3,1.8-1,2.5c-0.7,0.7-1.6,1-2.5,1c-0.9,0-1.8-0.3-2.5-1
			c-0.7-0.7-1-1.6-1-2.5V60c-1.4,1.8-3.2,3.3-5.2,4.3c-2.2,1.2-4.6,1.8-7.1,1.8c-3.2,0-6.3-0.9-9-2.5c-2.7-1.8-4.9-4.2-6.2-7.1
			c-1.6-3.2-2.3-6.7-2.3-10.2c-0.1-3.5,0.7-7,2.3-10.2c1.4-2.9,3.6-5.4,6.3-7.1c4.8-3,10.9-3.4,16-1c2,0.9,3.8,2.3,5.2,4.1v-1.8
			c0-0.9,0.3-1.9,1-2.5c0.6-0.7,1.5-1,2.5-1C197.9,26.7,198.8,27,199.5,27.6z M188.2,57.9c1.8-1.2,3.2-2.9,4.2-4.8
			c1-2.2,1.5-4.5,1.5-6.9c0-2.4-0.5-4.7-1.5-6.8c-0.9-2-2.4-3.6-4.2-4.8c-1.8-1.2-3.9-1.8-6.1-1.8c-2.2,0-4.3,0.6-6.1,1.8
			c-1.8,1.2-3.2,2.9-4.1,4.8c-1,2.2-1.5,4.5-1.5,6.9c0,2.4,0.5,4.8,1.5,6.9c0.9,2,2.4,3.6,4.1,4.8C179.7,60.3,184.4,60.3,188.2,57.9
			L188.2,57.9z"/>
		<path d="M221.7,19.2c-0.8,1-1.2,2.3-1.1,3.6v5.1h7.2c0.9,0,1.7,0.3,2.4,0.9c0.6,0.6,0.9,1.4,0.9,2.3
			c0,0.8-0.3,1.7-0.9,2.3c-0.6,0.6-1.5,0.9-2.4,0.9h-7.2v27.7c0,0.9-0.3,1.8-1,2.5c-0.7,0.7-1.6,1-2.5,1c-0.9,0-1.8-0.3-2.4-1
			c-0.7-0.7-1-1.6-1-2.5V34.2h-4.5c-0.9,0-1.7-0.3-2.3-0.9c-0.7-0.6-1-1.4-1-2.3c0-0.9,0.4-1.7,1-2.3c0.6-0.6,1.5-0.9,2.3-0.9h4.5
			v-5.1c-0.1-3.1,1.1-6,3.3-8.1c2.2-2,5.3-3,9.3-3c1.5,0,3,0.3,4.4,0.9c1.1,0.4,1.9,1.5,1.9,2.7c0,0.8-0.3,1.7-0.8,2.3
			c-0.5,0.6-1.2,0.9-2,0.9c-0.5-0.1-1.1-0.2-1.6-0.3c-0.9-0.3-1.8-0.4-2.8-0.4C223.9,17.6,222.6,18.2,221.7,19.2z"/>
		<path d="M268,47c-0.7,0.6-1.5,0.9-2.4,0.9h-25.7c0.2,3.3,1.7,6.3,4.1,8.5c2.4,2.1,5.4,3.3,8.6,3.2
			c1.9,0.1,3.9-0.3,5.7-1c1.4-0.7,2.7-1.6,3.9-2.6c0.6-0.4,1.4-0.6,2.1-0.7c0.8,0,1.5,0.3,2.1,0.9c0.5,0.5,0.8,1.2,0.8,2
			c0,1.1-0.6,2.1-1.5,2.8c-1.6,1.5-3.5,2.8-5.6,3.6c-2.3,1-4.7,1.5-7.1,1.5c-3.6,0.1-7.2-0.8-10.4-2.5c-2.9-1.6-5.3-4-6.9-6.9
			c-1.7-3.1-2.5-6.6-2.4-10.1c-0.1-3.7,0.8-7.4,2.5-10.8c1.5-2.9,3.8-5.4,6.6-7.1c5.4-3.3,12.2-3.3,17.6-0.1c2.7,1.6,5,3.9,6.6,6.6
			c1.7,2.9,2.5,6.2,2.5,9.6C269,45.7,268.6,46.4,268,47z M244.1,35c-2.1,1.8-3.6,4.3-3.9,7.1h21.5v-0.6c-0.2-2.5-1.5-4.8-3.5-6.3
			c-2-1.6-4.4-2.5-7-2.5C248.7,32.6,246.2,33.4,244.1,35z"/>
		<path d="M297.5,27.3c0.8,0.5,1.4,1.4,1.4,2.4c0.1,1-0.3,1.9-0.9,2.7c-0.6,0.6-1.4,0.9-2.2,0.9c-0.7,0-1.4-0.2-2-0.4
			c-0.8-0.3-1.6-0.5-2.4-0.5c-1.6,0-3.1,0.6-4.4,1.6c-1.5,1.1-2.7,2.6-3.5,4.3c-0.9,1.9-1.4,4-1.4,6.1v17.6c0,0.9-0.3,1.8-1,2.5
			c-0.7,0.7-1.6,1-2.5,1c-0.9,0-1.8-0.3-2.5-1c-0.6-0.7-1-1.6-1-2.5V30.7c0-0.9,0.3-1.8,1-2.5c0.6-0.7,1.5-1,2.4-1
			c0.9,0,1.9,0.3,2.5,1c0.7,0.7,1,1.6,1,2.5v3.7c1-2.3,2.7-4.4,4.8-5.8c2.1-1.5,4.7-2.3,7.3-2.3C295.4,26.3,296.6,26.6,297.5,27.3z"
			/>
		<path d="M328.1,28.1c2.6,1.2,3.8,2.8,3.8,4.7c0,0.8-0.3,1.6-0.8,2.2c-0.5,0.6-1.2,1-2,1c-0.5,0-1-0.1-1.5-0.3
			c-0.4-0.2-0.9-0.5-1.5-1c-0.4-0.4-0.9-0.7-1.4-1c-0.8-0.4-1.6-0.6-2.5-0.7c-1-0.2-1.9-0.3-2.9-0.3c-2.4,0-4.7,0.6-6.7,1.8
			c-1.9,1.2-3.5,2.8-4.5,4.8c-1.1,2.1-1.6,4.5-1.6,6.9c0,2.4,0.5,4.8,1.6,6.9c1,2,2.5,3.6,4.4,4.8c2,1.2,4.2,1.8,6.5,1.8
			c2.1,0.1,4.2-0.3,6.1-1.2c0.5-0.3,0.9-0.6,1.4-1c0.4-0.3,0.8-0.6,1.3-0.9c0.4-0.2,0.9-0.3,1.4-0.3c0.9,0,1.7,0.3,2.3,0.9
			c0.6,0.7,0.9,1.5,0.8,2.4c-0.1,1.2-0.9,2.4-1.9,3c-1.6,1.1-3.3,2-5.2,2.4c-2.3,0.6-4.6,1-7,0.9c-3.4,0.1-6.8-0.8-9.8-2.6
			c-2.8-1.7-5.1-4.2-6.5-7.1c-1.6-3.2-2.3-6.6-2.3-10.2c0-3.5,0.8-7,2.4-10.1c1.5-3,3.8-5.4,6.7-7.1c3-1.7,6.4-2.6,9.8-2.6
			C321.8,26.2,325.1,26.8,328.1,28.1z"/>
		<path d="M371.1,56.5c-1.6,3-4.1,5.4-7,7.1c-6,3.4-13.4,3.4-19.5,0c-2.9-1.7-5.4-4.1-7-7.1c-1.7-3.1-2.6-6.6-2.5-10.2
			c0-3.6,0.9-7.1,2.6-10.3c1.6-3,4.1-5.5,7-7.1c6-3.4,13.4-3.4,19.5,0c2.9,1.7,5.4,4.2,7,7.1c1.7,3.1,2.6,6.7,2.5,10.3
			C373.8,49.9,372.9,53.4,371.1,56.5z M365.1,39.2c-1-2-2.6-3.6-4.5-4.8c-3.8-2.3-8.6-2.3-12.5,0c-1.9,1.2-3.4,2.8-4.5,4.8
			c-1.1,2.2-1.7,4.6-1.6,7c0,2.4,0.5,4.8,1.6,6.9c1,2,2.5,3.7,4.4,4.8c3.8,2.3,8.6,2.3,12.5,0c1.9-1.2,3.4-2.8,4.5-4.8
			c1.1-2.1,1.7-4.5,1.6-6.9C366.8,43.9,366.3,41.4,365.1,39.2L365.1,39.2z"/>
		<path d="M412.5,42v19.8c0,0.9-0.3,1.8-1,2.5c-0.7,0.7-1.6,1-2.5,1c-0.9,0-1.8-0.3-2.5-1c-0.7-0.7-1-1.6-1-2.5V42.1
			c0.1-2.4-0.6-4.9-2-6.8c-1.3-1.7-3.5-2.5-6.4-2.5c-1.8,0-3.6,0.4-5.2,1.3c-1.5,0.8-2.8,2-3.7,3.4c-0.9,1.4-1.4,3-1.4,4.7v19.8
			c0,0.9-0.3,1.8-1,2.5c-0.7,0.7-1.6,1-2.5,1c-0.9,0-1.8-0.3-2.5-1c-0.6-0.7-1-1.6-0.9-2.5V30.7c0-0.9,0.3-1.8,1-2.5
			c0.6-0.7,1.5-1,2.4-1c0.9,0,1.9,0.3,2.5,1c0.7,0.7,1,1.6,1,2.5v2.5c1.4-2,3.2-3.7,5.3-4.9c2.2-1.3,4.7-2,7.3-2
			C408.1,26.3,412.5,31.6,412.5,42z"/>
		<path d="M431.4,34v21.7c0,2.4,1.1,3.6,3.3,3.6c0.5,0,0.9-0.1,1.4-0.2c0.4-0.1,0.9-0.2,1.4-0.3c0.6,0,1.2,0.3,1.6,0.8
			c1.1,1.3,0.8,3.2-0.5,4.3c-0.2,0.1-0.4,0.3-0.6,0.4c-1.2,0.7-2.5,1.1-3.9,1.1c-1.5,0-3-0.2-4.4-0.5c-1.5-0.4-2.7-1.3-3.6-2.6
			c-1-1.4-1.6-3.5-1.6-6.3V34h-4.2c-1.7,0.1-3.2-1.3-3.2-3c0-0.1,0-0.2,0-0.2c0-0.8,0.3-1.7,0.9-2.3c0.6-0.6,1.4-0.9,2.3-0.9h4.2
			v-6.1c0-0.9,0.3-1.8,1-2.5c0.7-0.7,1.6-1,2.5-1c0.9,0,1.8,0.3,2.5,1c0.7,0.7,1,1.6,1,2.5v6.1h6c1.7,0,3.2,1.3,3.2,3
			c0,0.1,0,0.1,0,0.2c0,0.8-0.3,1.7-0.9,2.2c-0.6,0.6-1.4,0.9-2.3,0.9L431.4,34z"/>
		<path d="M480.4,27.6c0.7,0.7,1,1.6,1,2.6v31.6c0,0.9-0.3,1.8-1,2.5c-1.4,1.3-3.6,1.3-5,0c-0.6-0.7-1-1.6-1-2.5V60
			c-1.4,1.8-3.2,3.3-5.2,4.3c-2.2,1.2-4.6,1.8-7.1,1.8c-3.2,0-6.3-0.8-9-2.5c-2.7-1.7-4.9-4.2-6.3-7.1c-1.6-3.2-2.4-6.7-2.3-10.2
			c0-3.5,0.7-7,2.3-10.2c1.4-2.9,3.6-5.4,6.3-7.1c2.6-1.7,5.7-2.6,8.9-2.6c2.5,0,4.9,0.5,7.2,1.6c2,1,3.8,2.3,5.2,4.1v-1.8
			c0-0.9,0.3-1.9,1-2.5c0.6-0.7,1.5-1,2.5-1C478.8,26.7,479.7,27,480.4,27.6z M469.1,57.9c1.8-1.2,3.2-2.9,4.2-4.8
			c1-2.2,1.5-4.5,1.5-6.9c0-2.4-0.5-4.7-1.5-6.8c-0.9-2-2.4-3.6-4.2-4.8c-1.8-1.2-3.9-1.8-6.1-1.8c-2.2,0-4.3,0.6-6.1,1.8
			c-1.8,1.2-3.2,2.9-4.1,4.8c-1,2.2-1.5,4.5-1.5,6.9c0,2.4,0.5,4.8,1.5,6.9c0.9,2,2.4,3.6,4.1,4.8C460.6,60.3,465.4,60.3,469.1,57.9
			L469.1,57.9z"/>
		<path d="M516,28.1c2.5,1.2,3.8,2.8,3.8,4.7c0,0.8-0.3,1.6-0.8,2.2c-0.5,0.6-1.2,1-2,1c-0.5,0-1-0.1-1.5-0.3
			c-0.4-0.2-0.9-0.5-1.5-1c-0.4-0.4-0.9-0.7-1.4-1c-0.8-0.4-1.6-0.6-2.5-0.7c-1-0.2-1.9-0.3-2.9-0.3c-2.4,0-4.7,0.6-6.7,1.8
			c-1.9,1.2-3.5,2.9-4.5,4.9c-2.1,4.4-2.1,9.4,0,13.8c1,2,2.5,3.7,4.4,4.8c2,1.2,4.2,1.8,6.5,1.8c2.1,0.1,4.2-0.3,6.1-1.2
			c0.5-0.3,0.9-0.6,1.4-1c0.4-0.3,0.8-0.6,1.3-0.9c0.4-0.2,0.9-0.3,1.3-0.3c0.9,0,1.7,0.3,2.3,0.9c0.6,0.7,0.9,1.5,0.8,2.4
			c-0.1,1.2-0.9,2.4-1.9,3c-1.6,1.2-3.3,2-5.2,2.5c-2.3,0.6-4.6,1-7,0.9c-3.4,0.1-6.8-0.8-9.8-2.6c-2.8-1.7-5.1-4.2-6.5-7.1
			c-1.6-3.2-2.3-6.6-2.3-10.2c0-3.6,0.8-7.1,2.5-10.2c1.5-3,3.9-5.4,6.7-7.1c3-1.8,6.4-2.6,9.8-2.6C509.7,26.2,513,26.8,516,28.1z"
			/>
		<path d="M535.8,34v21.7c0,2.4,1.1,3.6,3.3,3.6c0.5,0,0.9-0.1,1.4-0.2c0.4-0.1,0.9-0.2,1.4-0.3c0.6,0,1.2,0.3,1.6,0.8
			c1.1,1.3,0.8,3.2-0.5,4.3c-0.2,0.1-0.4,0.3-0.6,0.4c-1.2,0.7-2.5,1.1-3.9,1.1c-1.5,0-3-0.2-4.4-0.5c-1.5-0.4-2.7-1.3-3.6-2.6
			c-1-1.4-1.6-3.5-1.6-6.3V34h-4.2c-1.7,0.1-3.2-1.3-3.2-3c0-0.1,0-0.1,0-0.2c0-0.8,0.3-1.7,0.9-2.3c0.6-0.6,1.4-0.9,2.3-0.9h4.2
			v-6.2c0-0.9,0.3-1.8,1-2.5c0.7-0.7,1.6-1,2.5-1c0.9,0,1.8,0.3,2.4,1c0.7,0.7,1,1.6,1,2.5v6.1h6c1.7-0.1,3.1,1.3,3.2,3
			c0,0.1,0,0.1,0,0.2c0,0.8-0.3,1.7-0.9,2.2c-0.6,0.6-1.4,0.9-2.3,0.9L535.8,34z"/>
		<path d="M550.4,14.3c0.1,0.1,0.1,0.2,0.1,0.3c0,0.1,0,0.2-0.1,0.3c-0.1,0.1-0.2,0.1-0.3,0.1h-1.6v4.8
			c0,0.1,0,0.2-0.1,0.3c-0.1,0.1-0.2,0.1-0.3,0.1c-0.2,0-0.4-0.2-0.4-0.4c0,0,0,0,0,0V15h-1.5c-0.1,0-0.2,0-0.3-0.1
			c-0.1-0.1-0.1-0.2-0.1-0.3c0-0.1,0-0.2,0.1-0.3c0.1-0.1,0.2-0.1,0.3-0.1h3.9C550.2,14.2,550.3,14.2,550.4,14.3z M557.7,14.3
			c0.1,0.1,0.1,0.2,0.1,0.3V20c0,0.1-0.1,0.2-0.2,0.3c-0.1,0.1-0.2,0.1-0.3,0.1c-0.1,0-0.2,0-0.3-0.1c-0.1-0.1-0.1-0.2-0.1-0.3v-4.1
			l-1.9,3.1c0,0.1-0.2,0.2-0.4,0.2c-0.1,0-0.3-0.1-0.4-0.2l-1.7-3V20c0,0.1-0.1,0.2-0.2,0.3c-0.1,0.1-0.2,0.1-0.3,0.1
			c-0.1,0-0.2,0-0.3-0.1c-0.1-0.1-0.1-0.2-0.1-0.3v-5.4c0-0.1,0-0.2,0.1-0.3c0.1-0.1,0.2-0.1,0.3-0.1c0.2,0,0.4,0.1,0.5,0.2l2.1,3.6
			l2.2-3.6C557,14.1,557.4,14.1,557.7,14.3C557.7,14.3,557.7,14.3,557.7,14.3L557.7,14.3z"/>
	</g>
</g>
</svg>
