<svg xmlns="http://www.w3.org/2000/svg" viewBox="0 0 557.82 108.55"><defs></defs><g id="Layer_2" data-name="Layer 2"><g id="Layer_1-2" data-name="Layer 1"><path d="M23.84,18.77A4.16,4.16,0,0,0,26,18L40.66,30.66a5.63,5.63,0,1,0,1.05-1.26L27.19,16.88a4.18,4.18,0,1,0-3.35,1.89Zm21.58,12a2.75,2.75,0,1,1-2.68,2.81A2.73,2.73,0,0,1,45.42,30.8Z"/><path d="M39.29,61.45a5.56,5.56,0,0,0,3.58,1.29,5.61,5.61,0,1,0-5.57-6.26L10,56a4.18,4.18,0,1,0,0,1.63l27.42.52a5.58,5.58,0,0,0,.87,2.15L16.06,79.2a4.17,4.17,0,1,0,1.59,3.26,4.09,4.09,0,0,0-.56-2Zm3.58-7.06a2.75,2.75,0,1,1-2.75,2.74A2.74,2.74,0,0,1,42.87,54.39Z"/><path d="M45.36,9.31a4.07,4.07,0,0,0,1-.08L51.3,20.64A5.69,5.69,0,1,0,52.79,20L47.93,8.61a4.17,4.17,0,1,0-2.57.7Zm9.13,13.31a2.75,2.75,0,1,1-2.91,2.57A2.74,2.74,0,0,1,54.49,22.62Z"/><path d="M50.34,61.67A5.6,5.6,0,0,0,48,72.38l-4.35,9.79a4.26,4.26,0,0,0-1-.11,4.18,4.18,0,1,0,2.39.75l4.43-10a5.16,5.16,0,0,0,.79.07,5.61,5.61,0,0,0,0-11.22Zm0,8.35a2.75,2.75,0,1,1,2.74-2.74A2.75,2.75,0,0,1,50.34,70Z"/><path d="M66.45,31.69A5.61,5.61,0,0,0,68.73,21l4-12.67a2.81,2.81,0,0,0,.5,0,4.22,4.22,0,1,0-2-.52l-4,12.7a6,6,0,0,0-.85-.06,5.61,5.61,0,0,0,.11,11.22Zm-.08-8.36a2.75,2.75,0,1,1-2.72,2.78A2.75,2.75,0,0,1,66.37,23.33Z"/><path d="M68.73,44.79a5.58,5.58,0,1,0,.65,2.57,5,5,0,0,0-.11-1L113,30.46a4.5,4.5,0,1,0-.56-1.54Zm-5,5.34a2.75,2.75,0,1,1,2.73-2.76A2.75,2.75,0,0,1,63.78,50.13Z"/><path d="M75,29.26a5.63,5.63,0,1,0,4.18,2L91.47,17.11a4.22,4.22,0,0,0,2,.56A4.22,4.22,0,1,0,90.23,16L78,30.15A5.56,5.56,0,0,0,75,29.26Zm-.12,8.35a2.75,2.75,0,1,1,2.78-2.71A2.75,2.75,0,0,1,74.88,37.61Z"/><path d="M115.3,55.46a4.18,4.18,0,0,0-3.81,2.63L81.15,52.51a3.38,3.38,0,0,0,0-.45,5.61,5.61,0,1,0-.35,2L111.2,59.7v0a4.18,4.18,0,1,0,4.1-4.26Zm-39.69-.55a2.75,2.75,0,1,1,2.69-2.8A2.75,2.75,0,0,1,75.61,54.91Z"/><path d="M69.17,88.33c-.11,0-.21,0-.31,0L65.11,74.57a5.61,5.61,0,1,0-2.23.46,5.21,5.21,0,0,0,.69,0l3.75,13.8a4.14,4.14,0,1,0,1.85-.45ZM62.88,72.17a2.75,2.75,0,1,1,2.74-2.75A2.75,2.75,0,0,1,62.88,72.17Z"/><path d="M51.58,38.65A5.62,5.62,0,0,0,46.46,42L8.32,31.28c0-.11,0-.21,0-.32a4.23,4.23,0,1,0-.47,1.89L46,43.55a5.61,5.61,0,1,0,5.56-4.9Zm0,8.36a2.75,2.75,0,1,1,2.74-2.75A2.75,2.75,0,0,1,51.58,47Z"/><path d="M97,77.5a4.15,4.15,0,0,0-3,1.34l-15-11.55a5.54,5.54,0,0,0,.82-3,5.62,5.62,0,1,0-1.86,4.22L93.08,80.24a4,4,0,0,0-.26,1.48A4.18,4.18,0,1,0,97,77.5ZM74.13,67.13a2.75,2.75,0,1,1,2.72-2.77A2.75,2.75,0,0,1,74.13,67.13Z"/><path d="M129.62,57.43A3,3,0,0,1,131.15,55a2.88,2.88,0,0,1,1.68-.51,3.33,3.33,0,0,1,2.4,1.09,15.6,15.6,0,0,0,4.7,3.72,13.47,13.47,0,0,0,6,1.24,10.31,10.31,0,0,0,4.88-1.28,4.14,4.14,0,0,0,2.11-3.9,4.18,4.18,0,0,0-2.15-3.79,24.6,24.6,0,0,0-6.3-2.4,46.92,46.92,0,0,1-6.78-2.3,12.11,12.11,0,0,1-4.55-3.5,9.24,9.24,0,0,1-1.86-6,9.34,9.34,0,0,1,1.86-5.76,12.36,12.36,0,0,1,5-3.86,16.38,16.38,0,0,1,6.74-1.38,19.33,19.33,0,0,1,7,1.31,13,13,0,0,1,5.65,4,3.24,3.24,0,0,1,.88,2.11A3.13,3.13,0,0,1,157.17,36a2.61,2.61,0,0,1-1.82.66,2.74,2.74,0,0,1-2.11-.88,10.44,10.44,0,0,0-3.76-2.7,12.44,12.44,0,0,0-4.92-.94,9.11,9.11,0,0,0-4.7,1.13,4.06,4.06,0,0,0-1.93,3.82,4.24,4.24,0,0,0,2.22,3.79,28.23,28.23,0,0,0,6.6,2.41,41.57,41.57,0,0,1,6.41,2.18,11.2,11.2,0,0,1,4.3,3.47,9.62,9.62,0,0,1,1.75,6,9.32,9.32,0,0,1-2,5.94,12.64,12.64,0,0,1-5.13,3.86,17.09,17.09,0,0,1-6.75,1.35,22.28,22.28,0,0,1-8.49-1.6,15.73,15.73,0,0,1-6.59-5.11A3.59,3.59,0,0,1,129.62,57.43Z"/><path d="M199.48,27.65a3.53,3.53,0,0,1,1,2.59V61.87a3.45,3.45,0,0,1-1,2.48,3.36,3.36,0,0,1-2.52,1,3.28,3.28,0,0,1-2.47-1,3.46,3.46,0,0,1-1-2.52V60a15.64,15.64,0,0,1-5.18,4.33,14.54,14.54,0,0,1-7.07,1.79,16.55,16.55,0,0,1-9-2.55A17.53,17.53,0,0,1,166,56.44a22.42,22.42,0,0,1-2.29-10.24A22.44,22.44,0,0,1,166,36a17.58,17.58,0,0,1,6.31-7.1,16.68,16.68,0,0,1,16-.95A14.82,14.82,0,0,1,193.54,32V30.24a3.57,3.57,0,0,1,1-2.55,3.21,3.21,0,0,1,2.47-1A3.45,3.45,0,0,1,199.48,27.65Zm-11.3,30.29a11.92,11.92,0,0,0,4.16-4.81,15.67,15.67,0,0,0,1.49-6.93,15.51,15.51,0,0,0-1.49-6.85,12.14,12.14,0,0,0-4.16-4.84,10.65,10.65,0,0,0-6.08-1.79A10.79,10.79,0,0,0,176,34.47a11.76,11.76,0,0,0-4.15,4.81,15.53,15.53,0,0,0-1.5,6.92,15.54,15.54,0,0,0,1.5,6.93A11.82,11.82,0,0,0,176,57.94a11.45,11.45,0,0,0,12.17,0Z"/><path d="M221.71,19.16a5.64,5.64,0,0,0-1.13,3.57v5.11h7.21a3.2,3.2,0,0,1,2.37.91,3.1,3.1,0,0,1,.91,2.29,3,3,0,0,1-.91,2.26,3.26,3.26,0,0,1-2.37.88h-7.21V61.87a3.42,3.42,0,0,1-1,2.48,3.32,3.32,0,0,1-2.51,1,3.25,3.25,0,0,1-2.44-1,3.42,3.42,0,0,1-1-2.48V34.18h-4.52a3.28,3.28,0,0,1-2.33-.88,2.93,2.93,0,0,1-1-2.26,3.05,3.05,0,0,1,1-2.29,3.22,3.22,0,0,1,2.33-.91h4.52V22.73a10.53,10.53,0,0,1,3.28-8.12q3.28-3,9.26-3a9.92,9.92,0,0,1,4.37.92,2.91,2.91,0,0,1,1.9,2.73,3.23,3.23,0,0,1-.84,2.29,2.64,2.64,0,0,1-2,.92,11.1,11.1,0,0,1-1.6-.3,10.78,10.78,0,0,0-2.77-.43A4.18,4.18,0,0,0,221.71,19.16Z"/><path d="M268,47a3.48,3.48,0,0,1-2.41.91H239.89a12.68,12.68,0,0,0,4.05,8.53,12.36,12.36,0,0,0,8.63,3.21,13.57,13.57,0,0,0,5.69-1A14.41,14.41,0,0,0,262.12,56a4.16,4.16,0,0,1,2.11-.65,2.77,2.77,0,0,1,2.08.87,2.84,2.84,0,0,1,.84,2,3.6,3.6,0,0,1-1.46,2.77,17.14,17.14,0,0,1-5.61,3.57,18.42,18.42,0,0,1-7.14,1.46,21.15,21.15,0,0,1-10.39-2.48,17.2,17.2,0,0,1-6.92-6.92,20.55,20.55,0,0,1-2.44-10.06,22.14,22.14,0,0,1,2.51-10.75,18.38,18.38,0,0,1,6.63-7.11,17.12,17.12,0,0,1,17.6-.07,18.29,18.29,0,0,1,6.56,6.63A19,19,0,0,1,269,44.82,3.12,3.12,0,0,1,268,47ZM244.12,35a11.31,11.31,0,0,0-3.94,7.1h21.5v-.58a8.86,8.86,0,0,0-3.46-6.34,11,11,0,0,0-7-2.48A11.25,11.25,0,0,0,244.12,35Z"/><path d="M297.54,27.29a2.92,2.92,0,0,1,1.38,2.44,3.59,3.59,0,0,1-.91,2.66,3,3,0,0,1-2.22.91,7,7,0,0,1-2-.43,8.17,8.17,0,0,0-2.4-.51A7.42,7.42,0,0,0,287,33.92a11.48,11.48,0,0,0-3.5,4.3,13.55,13.55,0,0,0-1.35,6.09V61.87a3.45,3.45,0,0,1-1,2.48,3.36,3.36,0,0,1-2.52,1,3.28,3.28,0,0,1-2.47-1,3.46,3.46,0,0,1-.95-2.52V30.68a3.47,3.47,0,0,1,1-2.48,3.26,3.26,0,0,1,2.44-1,3.36,3.36,0,0,1,2.52,1,3.47,3.47,0,0,1,1,2.48V34.4A13.8,13.8,0,0,1,287,28.6a12.86,12.86,0,0,1,7.29-2.29A5.49,5.49,0,0,1,297.54,27.29Z"/><path d="M328.11,28.13c2.56,1.21,3.83,2.77,3.83,4.66a3.47,3.47,0,0,1-.8,2.23,2.55,2.55,0,0,1-2,1,3.31,3.31,0,0,1-1.5-.29c-.36-.2-.86-.51-1.49-1a7.69,7.69,0,0,0-1.39-1,9.7,9.7,0,0,0-2.47-.73,16.84,16.84,0,0,0-2.92-.29,12.71,12.71,0,0,0-6.7,1.75,11.83,11.83,0,0,0-4.52,4.85,14.72,14.72,0,0,0-1.6,6.88,15,15,0,0,0,1.56,6.93,12,12,0,0,0,4.41,4.81A12.2,12.2,0,0,0,319,59.69a13.73,13.73,0,0,0,6.12-1.17,13.1,13.1,0,0,0,1.38-1,8.08,8.08,0,0,1,1.28-.87,2.75,2.75,0,0,1,1.35-.29,3,3,0,0,1,2.29.91,3.37,3.37,0,0,1,.84,2.37,4,4,0,0,1-1.93,3,15.46,15.46,0,0,1-5.17,2.44,24.85,24.85,0,0,1-7,.95,18.28,18.28,0,0,1-9.77-2.59,17.26,17.26,0,0,1-6.52-7.14,22.27,22.27,0,0,1-2.3-10.17A21.32,21.32,0,0,1,302,36a17.9,17.9,0,0,1,6.7-7.15,18.77,18.77,0,0,1,9.84-2.58A22.15,22.15,0,0,1,328.11,28.13Z"/><path d="M371.15,56.48a18.54,18.54,0,0,1-7,7.07,19.84,19.84,0,0,1-19.46,0,18.54,18.54,0,0,1-7-7.07,20.38,20.38,0,0,1-2.55-10.2A20.81,20.81,0,0,1,337.77,36a18.38,18.38,0,0,1,7-7.14,19.84,19.84,0,0,1,19.46,0,18.38,18.38,0,0,1,7,7.14,20.81,20.81,0,0,1,2.55,10.28A20.38,20.38,0,0,1,371.15,56.48Zm-6-17.24a12.25,12.25,0,0,0-4.45-4.81,12.2,12.2,0,0,0-12.46,0,12.25,12.25,0,0,0-4.45,4.81,14.86,14.86,0,0,0-1.64,7,14.46,14.46,0,0,0,1.64,6.92A12.27,12.27,0,0,0,348.23,58a12.14,12.14,0,0,0,12.46,0,12.27,12.27,0,0,0,4.45-4.77,14.46,14.46,0,0,0,1.64-6.92A14.86,14.86,0,0,0,365.14,39.24Z"/><path d="M412.47,42.05V61.87a3.41,3.41,0,0,1-1,2.48,3.34,3.34,0,0,1-2.51,1,3.27,3.27,0,0,1-2.45-1,3.45,3.45,0,0,1-1-2.48V42.12a11,11,0,0,0-2-6.85q-2-2.55-6.41-2.55A10.94,10.94,0,0,0,391.89,34a9.69,9.69,0,0,0-3.72,3.42,8.66,8.66,0,0,0-1.35,4.7V61.87a3.45,3.45,0,0,1-1,2.48,3.36,3.36,0,0,1-2.52,1,3.31,3.31,0,0,1-2.48-1,3.5,3.5,0,0,1-.94-2.52V30.68a3.43,3.43,0,0,1,1-2.48,3.26,3.26,0,0,1,2.44-1,3.36,3.36,0,0,1,2.52,1,3.47,3.47,0,0,1,1,2.48v2.55a15.69,15.69,0,0,1,5.28-4.92,14,14,0,0,1,7.26-2Q412.47,26.31,412.47,42.05Z"/><path d="M431.35,34V55.68q0,3.65,3.28,3.64a5.18,5.18,0,0,0,1.38-.25,5.41,5.41,0,0,1,1.39-.26,2,2,0,0,1,1.6.8,3.06,3.06,0,0,1-1.09,4.67A7.28,7.28,0,0,1,434,65.37a17.91,17.91,0,0,1-4.41-.51A6.56,6.56,0,0,1,426,62.27q-1.56-2.07-1.56-6.3V34H420.2A3.11,3.11,0,0,1,417,30.75a3,3,0,0,1,.91-2.26,3.19,3.19,0,0,1,2.3-.87h4.23V21.5a3.41,3.41,0,0,1,1-2.48,3.34,3.34,0,0,1,2.51-1,3.27,3.27,0,0,1,2.45,1,3.45,3.45,0,0,1,1,2.48v6.12h6a3.13,3.13,0,0,1,3.21,3.21,3,3,0,0,1-.92,2.25,3.14,3.14,0,0,1-2.29.88Z"/><path d="M480.36,27.65a3.5,3.5,0,0,1,1,2.59V61.87a3.42,3.42,0,0,1-1,2.48,3.61,3.61,0,0,1-5,0,3.51,3.51,0,0,1-.95-2.52V60a15.6,15.6,0,0,1-5.17,4.33,14.59,14.59,0,0,1-7.07,1.79,16.5,16.5,0,0,1-9-2.55,17.46,17.46,0,0,1-6.34-7.11,22.42,22.42,0,0,1-2.3-10.24A22.45,22.45,0,0,1,446.84,36a17.63,17.63,0,0,1,6.3-7.1A16.09,16.09,0,0,1,462,26.31a16.27,16.27,0,0,1,7.18,1.6A14.87,14.87,0,0,1,474.42,32V30.24a3.61,3.61,0,0,1,.95-2.55,3.23,3.23,0,0,1,2.48-1A3.42,3.42,0,0,1,480.36,27.65Zm-11.3,30.29a11.84,11.84,0,0,0,4.16-4.81,15.67,15.67,0,0,0,1.49-6.93,15.51,15.51,0,0,0-1.49-6.85,12.06,12.06,0,0,0-4.16-4.84A10.65,10.65,0,0,0,463,32.72a10.81,10.81,0,0,0-6.09,1.75,11.76,11.76,0,0,0-4.15,4.81,15.53,15.53,0,0,0-1.5,6.92,15.54,15.54,0,0,0,1.5,6.93,11.82,11.82,0,0,0,4.15,4.81,11.45,11.45,0,0,0,12.17,0Z"/><path d="M516,28.13c2.55,1.21,3.83,2.77,3.83,4.66A3.47,3.47,0,0,1,519,35a2.55,2.55,0,0,1-2,1,3.26,3.26,0,0,1-1.49-.29c-.36-.2-.86-.51-1.49-1a8.07,8.07,0,0,0-1.39-1,9.79,9.79,0,0,0-2.48-.73,16.82,16.82,0,0,0-2.91-.29,12.77,12.77,0,0,0-6.71,1.75A11.89,11.89,0,0,0,496,39.32a15.83,15.83,0,0,0,0,13.81,11.85,11.85,0,0,0,4.41,4.81,12.14,12.14,0,0,0,6.48,1.75A13.75,13.75,0,0,0,513,58.52a13.1,13.1,0,0,0,1.38-1,8.08,8.08,0,0,1,1.28-.87,2.74,2.74,0,0,1,1.34-.29,3,3,0,0,1,2.3.91,3.37,3.37,0,0,1,.84,2.37,4,4,0,0,1-1.93,3A15.52,15.52,0,0,1,513,65.15a24.75,24.75,0,0,1-7,.95,18.25,18.25,0,0,1-9.76-2.59,17.28,17.28,0,0,1-6.53-7.14,22.27,22.27,0,0,1-2.29-10.17A21.43,21.43,0,0,1,489.87,36a18,18,0,0,1,6.71-7.15,18.72,18.72,0,0,1,9.84-2.58A22.15,22.15,0,0,1,516,28.13Z"/><path d="M535.79,34V55.68q0,3.65,3.28,3.64a5.18,5.18,0,0,0,1.38-.25,5.41,5.41,0,0,1,1.39-.26,2,2,0,0,1,1.6.8,3.06,3.06,0,0,1-1.09,4.67,7.28,7.28,0,0,1-3.94,1.09,17.91,17.91,0,0,1-4.41-.51,6.52,6.52,0,0,1-3.57-2.59c-1-1.38-1.57-3.48-1.57-6.3V34h-4.22a3.11,3.11,0,0,1-3.21-3.21,3,3,0,0,1,.91-2.26,3.19,3.19,0,0,1,2.3-.87h4.22V21.5a3.42,3.42,0,0,1,1-2.48,3.32,3.32,0,0,1,2.51-1,3.25,3.25,0,0,1,2.44,1,3.42,3.42,0,0,1,1,2.48v6.12h6.05a3.11,3.11,0,0,1,3.2,3.21,3,3,0,0,1-.91,2.25,3.15,3.15,0,0,1-2.29.88Z"/><path d="M550.4,14.28a.37.37,0,0,1,.13.3.44.44,0,0,1-.12.32.43.43,0,0,1-.31.12h-1.59v4.82a.43.43,0,0,1-.12.31.47.47,0,0,1-.34.12.41.41,0,0,1-.43-.43V15h-1.45a.39.39,0,0,1-.3-.13.43.43,0,0,1-.14-.31.41.41,0,0,1,.13-.31.45.45,0,0,1,.31-.1h3.93A.43.43,0,0,1,550.4,14.28Zm7.28,0a.37.37,0,0,1,.14.31V20a.37.37,0,0,1-.15.3.47.47,0,0,1-.34.13.49.49,0,0,1-.34-.12.42.42,0,0,1-.13-.31V15.93L555,19.08c0,.12-.17.18-.37.18a.38.38,0,0,1-.37-.18l-1.69-3V20a.54.54,0,0,1-.15.31.41.41,0,0,1-.32.12.45.45,0,0,1-.33-.12.41.41,0,0,1-.12-.31V14.6a.42.42,0,0,1,.12-.3.4.4,0,0,1,.31-.13.54.54,0,0,1,.49.24L554.65,18l2.21-3.61a.58.58,0,0,1,.82-.12Z"/><path d="M148.47,86.19A7.58,7.58,0,0,1,151,89.52a12,12,0,0,1,.85,4.6,12.15,12.15,0,0,1-.85,4.67,7.41,7.41,0,0,1-2.57,3.29,7.1,7.1,0,0,1-4.24,1.22h-6.69a.73.73,0,0,1-.56-.22.75.75,0,0,1-.23-.56V85.73a.78.78,0,0,1,.23-.57.73.73,0,0,1,.56-.22h6.69A7,7,0,0,1,148.47,86.19Zm.19,13.45a9,9,0,0,0,1.55-5.52,10.85,10.85,0,0,0-.65-3.84,6,6,0,0,0-2.06-2.76,5.79,5.79,0,0,0-3.53-1h-5.56v15.27H144A5.43,5.43,0,0,0,148.66,99.64Z"/><path d="M165.78,89.88a.78.78,0,0,1,.23.57V102a7.13,7.13,0,0,1-.82,3.54,5.43,5.43,0,0,1-2.25,2.23,6.85,6.85,0,0,1-3.26.76,9,9,0,0,1-2.06-.23,5.66,5.66,0,0,1-1.58-.63c-.37-.23-.55-.48-.55-.76a1.1,1.1,0,0,1,0-.27.73.73,0,0,1,.26-.39.66.66,0,0,1,.71,0,6.73,6.73,0,0,0,3.2.92,4.5,4.5,0,0,0,3.45-1.37,5.23,5.23,0,0,0,1.27-3.72v-.92a4.76,4.76,0,0,1-1.89,1.77,5.57,5.57,0,0,1-2.67.67,4.35,4.35,0,0,1-3.47-1.37,5.49,5.49,0,0,1-1.18-3.7v-8a.78.78,0,0,1,.23-.57.79.79,0,0,1,.56-.22.75.75,0,0,1,.79.79v7.82a4.32,4.32,0,0,0,.82,2.86,3.26,3.26,0,0,0,2.59,1,4.23,4.23,0,0,0,2.06-.54,4.39,4.39,0,0,0,1.57-1.42,3.24,3.24,0,0,0,.59-1.87V90.45a.8.8,0,0,1,1.35-.57Z"/><path d="M180,91a5.92,5.92,0,0,1,1.14,3.79v7.72a.75.75,0,0,1-.23.56.82.82,0,0,1-1.12,0,.75.75,0,0,1-.22-.56V94.88a4.36,4.36,0,0,0-.85-2.77,3.21,3.21,0,0,0-2.64-1.06A4.74,4.74,0,0,0,172.33,93a3.21,3.21,0,0,0-.63,1.9v7.64a.75.75,0,0,1-.22.56.84.84,0,0,1-1.13,0,.75.75,0,0,1-.22-.56V90.76a.79.79,0,1,1,1.57,0v1.45a5.9,5.9,0,0,1,4.75-2.63A4.31,4.31,0,0,1,180,91Z"/><path d="M196.74,90.13a.82.82,0,0,1,.23.58v11.81a.75.75,0,0,1-.23.56.75.75,0,0,1-.56.22.73.73,0,0,1-.56-.22.75.75,0,0,1-.23-.56v-1.76a5.43,5.43,0,0,1-2,2,5.23,5.23,0,0,1-2.86.82,5.68,5.68,0,0,1-3.16-.92,6.29,6.29,0,0,1-2.2-2.52,8,8,0,0,1-.8-3.59,7.81,7.81,0,0,1,.81-3.59,6.28,6.28,0,0,1,2.22-2.48,5.86,5.86,0,0,1,6-.13,5,5,0,0,1,2,2V90.71a.82.82,0,0,1,.23-.58.74.74,0,0,1,.56-.23A.75.75,0,0,1,196.74,90.13Zm-3.56,11.25a4.91,4.91,0,0,0,1.7-2,6.43,6.43,0,0,0,.62-2.84,6.28,6.28,0,0,0-.62-2.79,5,5,0,0,0-1.7-2,4.57,4.57,0,0,0-4.91,0,4.78,4.78,0,0,0-1.71,1.95,6.35,6.35,0,0,0-.61,2.83,6.57,6.57,0,0,0,.6,2.84,4.82,4.82,0,0,0,1.69,2,4.6,4.6,0,0,0,4.94,0Z"/><path d="M219.78,91.25a6.17,6.17,0,0,1,1.11,3.84v7.43a.75.75,0,0,1-.22.56.84.84,0,0,1-1.13,0,.75.75,0,0,1-.22-.56V95.17a4.56,4.56,0,0,0-.83-2.82,3,3,0,0,0-2.55-1.09,4.38,4.38,0,0,0-2.09.53,4.22,4.22,0,0,0-1.59,1.43,3.45,3.45,0,0,0-.6,2v7.35a.79.79,0,0,1-.22.56.77.77,0,0,1-.57.22.75.75,0,0,1-.56-.22.75.75,0,0,1-.23-.56V95.09a4.59,4.59,0,0,0-.78-2.77,2.9,2.9,0,0,0-2.47-1.06,4.16,4.16,0,0,0-2,.53,4.27,4.27,0,0,0-1.55,1.4,3.38,3.38,0,0,0-.59,1.9v7.43a.79.79,0,0,1-.22.56.77.77,0,0,1-.57.22.75.75,0,0,1-.78-.78V90.76a.76.76,0,0,1,.22-.56.75.75,0,0,1,.56-.22.77.77,0,0,1,.57.22.8.8,0,0,1,.22.56v1.53a5.67,5.67,0,0,1,1.91-1.79,5,5,0,0,1,2.55-.71,4.61,4.61,0,0,1,2.62.74,4,4,0,0,1,1.58,2.15,4.83,4.83,0,0,1,2-2,5.77,5.77,0,0,1,3-.87A4.1,4.1,0,0,1,219.78,91.25Z"/><path d="M224.93,87.65a.89.89,0,0,1-.28-.72v-.26A.89.89,0,0,1,225,86a1.22,1.22,0,0,1,.82-.25c.7,0,1,.32,1,1v.26a.91.91,0,0,1-.27.72,1.15,1.15,0,0,1-.8.25A1.22,1.22,0,0,1,224.93,87.65Zm1.38,15.43a.75.75,0,0,1-.56.22.77.77,0,0,1-.57-.22.75.75,0,0,1-.22-.56V90.45a.77.77,0,0,1,.22-.57.81.81,0,0,1,.57-.22.79.79,0,0,1,.56.22.77.77,0,0,1,.22.57v12.07A.75.75,0,0,1,226.31,103.08Z"/><path d="M238.72,89.86a4.84,4.84,0,0,1,1.71.75,1.28,1.28,0,0,1,.64,1,.79.79,0,0,1-.2.52.6.6,0,0,1-.48.24.84.84,0,0,1-.44-.1,2.39,2.39,0,0,1-.38-.32,2.52,2.52,0,0,0-.65-.5,4.53,4.53,0,0,0-1-.3,7.54,7.54,0,0,0-1.38-.12,4.9,4.9,0,0,0-2.63.74,5.22,5.22,0,0,0-1.88,2,5.81,5.81,0,0,0-.68,2.78A6,6,0,0,0,232,99.4a4.9,4.9,0,0,0,4.48,2.7,5.61,5.61,0,0,0,1.51-.16,5,5,0,0,0,1.12-.45,5.3,5.3,0,0,0,.63-.47,2.78,2.78,0,0,1,.36-.27.7.7,0,0,1,.34-.1.65.65,0,0,1,.5.2.69.69,0,0,1,.19.51,1.36,1.36,0,0,1-.63,1,5.47,5.47,0,0,1-1.73.88,7.87,7.87,0,0,1-2.45.37,6.42,6.42,0,0,1-3.41-.91,6.22,6.22,0,0,1-2.32-2.5,7.76,7.76,0,0,1-.82-3.6,7.39,7.39,0,0,1,.84-3.5,6.47,6.47,0,0,1,5.85-3.48A8.82,8.82,0,0,1,238.72,89.86Z"/><path d="M265.47,87a1,1,0,0,1-.18.52.73.73,0,0,1-.61.29.76.76,0,0,1-.42-.13,8.12,8.12,0,0,0-4.59-1.39,7.43,7.43,0,0,0-3.84,1,7,7,0,0,0-2.7,2.79,9,9,0,0,0,0,8.21,7.13,7.13,0,0,0,2.71,2.79,7.62,7.62,0,0,0,3.82,1,8.17,8.17,0,0,0,4.57-1.37.9.9,0,0,1,.44-.13.84.84,0,0,1,.79.82.67.67,0,0,1-.37.63,9.84,9.84,0,0,1-2.52,1.14,10,10,0,0,1-2.91.46,9.15,9.15,0,0,1-4.6-1.2A8.83,8.83,0,0,1,251.71,99a9.64,9.64,0,0,1-1.25-4.91,9.47,9.47,0,0,1,1.24-4.81A9,9,0,0,1,255,85.92a9.11,9.11,0,0,1,4.64-1.22,9.92,9.92,0,0,1,2.87.42,9.54,9.54,0,0,1,2.54,1.18A.74.74,0,0,1,265.47,87Z"/><path d="M279.93,100.16a6.57,6.57,0,0,1-11.55,0,7.84,7.84,0,0,1,0-7.14,6.51,6.51,0,0,1,2.39-2.52,6.69,6.69,0,0,1,6.77,0A6.51,6.51,0,0,1,279.93,93a7.84,7.84,0,0,1,0,7.14Zm-1.37-6.41a5,5,0,0,0-1.82-2,4.84,4.84,0,0,0-2.59-.72,4.77,4.77,0,0,0-2.57.72,5.19,5.19,0,0,0-1.82,2,5.92,5.92,0,0,0-.67,2.84,5.86,5.86,0,0,0,.67,2.81,5.19,5.19,0,0,0,1.82,2,4.77,4.77,0,0,0,2.57.72,4.88,4.88,0,0,0,4.41-2.68,6.42,6.42,0,0,0,0-5.67Z"/><path d="M293.92,91a5.93,5.93,0,0,1,1.15,3.79v7.72a.73.73,0,0,1-.24.56.82.82,0,0,1-1.12,0,.79.79,0,0,1-.22-.56V94.88a4.3,4.3,0,0,0-.85-2.77A3.21,3.21,0,0,0,290,91.05a4.61,4.61,0,0,0-2.14.53,4.56,4.56,0,0,0-1.64,1.4,3.21,3.21,0,0,0-.63,1.9v7.64a.75.75,0,0,1-.22.56.84.84,0,0,1-1.13,0,.75.75,0,0,1-.22-.56V90.76a.79.79,0,1,1,1.57,0v1.45a5.55,5.55,0,0,1,2-1.88,5.44,5.44,0,0,1,2.71-.75A4.31,4.31,0,0,1,293.92,91Z"/><path d="M301.81,91.42v8.79a1.86,1.86,0,0,0,.37,1.35,1.3,1.3,0,0,0,1,.35,1.69,1.69,0,0,0,.39-.06,1.76,1.76,0,0,1,.37-.07.52.52,0,0,1,.4.2.64.64,0,0,1,.17.46.73.73,0,0,1-.42.62,2,2,0,0,1-1,.24,5.31,5.31,0,0,1-1.26-.13,2,2,0,0,1-1.06-.78,3.38,3.38,0,0,1-.52-2.1V91.42h-1.91a.76.76,0,0,1-.54-.21.69.69,0,0,1-.22-.53.67.67,0,0,1,.22-.52.76.76,0,0,1,.54-.21h1.91V87a.79.79,0,1,1,1.58,0V90h2.62a.68.68,0,0,1,.51.24.73.73,0,0,1,.23.52.66.66,0,0,1-.21.51.76.76,0,0,1-.53.2Z"/><path d="M319.53,90.13a.81.81,0,0,1,.22.58v11.81a.75.75,0,0,1-.22.56.84.84,0,0,1-1.13,0,.75.75,0,0,1-.22-.56v-1.76a5.43,5.43,0,0,1-2,2,5.26,5.26,0,0,1-2.86.82,5.68,5.68,0,0,1-3.16-.92,6.21,6.21,0,0,1-2.2-2.52A8.41,8.41,0,0,1,308,93a6.28,6.28,0,0,1,2.22-2.48,5.86,5.86,0,0,1,6-.13,5,5,0,0,1,2,2V90.71a.81.81,0,0,1,.22-.58.81.81,0,0,1,1.13,0ZM316,101.38a4.86,4.86,0,0,0,1.71-2,6.43,6.43,0,0,0,.61-2.84,6.27,6.27,0,0,0-.61-2.79,4.93,4.93,0,0,0-1.71-2,4.32,4.32,0,0,0-2.45-.72,4.39,4.39,0,0,0-2.45.71,4.78,4.78,0,0,0-1.71,1.95,6.36,6.36,0,0,0-.62,2.83,6.43,6.43,0,0,0,.61,2.84,4.75,4.75,0,0,0,1.69,2,4.4,4.4,0,0,0,2.48.72A4.32,4.32,0,0,0,316,101.38Z"/><path d="M332,89.86a4.87,4.87,0,0,1,1.7.75,1.28,1.28,0,0,1,.64,1,.78.78,0,0,1-.19.52.6.6,0,0,1-.49.24.81.81,0,0,1-.43-.1,2.39,2.39,0,0,1-.38-.32,2.73,2.73,0,0,0-.66-.5,4.43,4.43,0,0,0-1-.3,7.54,7.54,0,0,0-1.38-.12,5,5,0,0,0-2.64.74,5.19,5.19,0,0,0-1.87,2,5.7,5.7,0,0,0-.69,2.78,6,6,0,0,0,.66,2.84,5.11,5.11,0,0,0,1.82,2,5,5,0,0,0,2.67.72,5.61,5.61,0,0,0,1.51-.16,5.17,5.17,0,0,0,1.11-.45A5.3,5.3,0,0,0,333,101a2.26,2.26,0,0,1,.37-.27.68.68,0,0,1,.84.1.72.72,0,0,1,.18.51,1.36,1.36,0,0,1-.63,1,5.47,5.47,0,0,1-1.73.88,7.81,7.81,0,0,1-2.44.37,6.4,6.4,0,0,1-3.41-.91,6.15,6.15,0,0,1-2.32-2.5,7.76,7.76,0,0,1-.83-3.6,7.39,7.39,0,0,1,.84-3.5,6.47,6.47,0,0,1,5.85-3.48A8.89,8.89,0,0,1,332,89.86Z"/><path d="M340,91.42v8.79a1.86,1.86,0,0,0,.37,1.35,1.32,1.32,0,0,0,1,.35,1.61,1.61,0,0,0,.39-.06,1.76,1.76,0,0,1,.37-.07.54.54,0,0,1,.41.2.69.69,0,0,1,.17.46.73.73,0,0,1-.42.62,2,2,0,0,1-1,.24,5.36,5.36,0,0,1-1.26-.13,2,2,0,0,1-1.06-.78,3.45,3.45,0,0,1-.51-2.1V91.42h-1.92a.76.76,0,0,1-.54-.21.73.73,0,0,1-.22-.53.71.71,0,0,1,.22-.52.76.76,0,0,1,.54-.21h1.92V87a.77.77,0,0,1,.22-.57.84.84,0,0,1,1.13,0A.77.77,0,0,1,340,87V90h2.63a.68.68,0,0,1,.51.24.72.72,0,0,1,.22.52.66.66,0,0,1-.21.51.75.75,0,0,1-.52.2Z"/><path d="M366.07,85.15a.72.72,0,0,1,.23.55.68.68,0,0,1-.23.54.79.79,0,0,1-.56.19h-5.43v16.09a.73.73,0,0,1-.24.56.89.89,0,0,1-1.17,0,.79.79,0,0,1-.22-.56V86.43H353a.78.78,0,0,1-.56-.21.72.72,0,0,1-.23-.55.68.68,0,0,1,.23-.52.78.78,0,0,1,.56-.21h12.49A.76.76,0,0,1,366.07,85.15Z"/><path d="M374.9,89.79a.67.67,0,0,1,.42.63.82.82,0,0,1-.21.59.66.66,0,0,1-.5.23,2.2,2.2,0,0,1-.51-.14,2.38,2.38,0,0,0-.72-.13,3.12,3.12,0,0,0-1.93.75,5.77,5.77,0,0,0-1.57,1.93,5.13,5.13,0,0,0-.62,2.39v6.48a.75.75,0,0,1-.22.56.84.84,0,0,1-1.13,0,.75.75,0,0,1-.22-.56V90.76a.79.79,0,1,1,1.57,0v2.31a6.1,6.1,0,0,1,1.82-2.48,4.65,4.65,0,0,1,2.88-1A2.06,2.06,0,0,1,374.9,89.79Z"/><path d="M388.93,90.13a.85.85,0,0,1,.22.58v11.81a.79.79,0,0,1-.22.56.77.77,0,0,1-.57.22.75.75,0,0,1-.78-.78v-1.76a5.51,5.51,0,0,1-2,2,5.28,5.28,0,0,1-2.86.82,5.65,5.65,0,0,1-3.16-.92,6.31,6.31,0,0,1-2.21-2.52,8,8,0,0,1-.8-3.59A7.69,7.69,0,0,1,377.4,93a6.34,6.34,0,0,1,2.21-2.48,5.88,5.88,0,0,1,6-.13,5.11,5.11,0,0,1,2,2V90.71a.81.81,0,0,1,.22-.58.75.75,0,0,1,.56-.23A.78.78,0,0,1,388.93,90.13Zm-3.57,11.25a4.91,4.91,0,0,0,1.7-2,6.43,6.43,0,0,0,.62-2.84,6.28,6.28,0,0,0-.62-2.79,5,5,0,0,0-1.7-2,4.37,4.37,0,0,0-2.45-.72,4.45,4.45,0,0,0-2.46.71,4.83,4.83,0,0,0-1.7,1.95,6.36,6.36,0,0,0-.62,2.83,6.57,6.57,0,0,0,.6,2.84,4.84,4.84,0,0,0,1.7,2,4.58,4.58,0,0,0,4.93,0Z"/><path d="M401.36,89.86a4.84,4.84,0,0,1,1.71.75,1.28,1.28,0,0,1,.64,1,.79.79,0,0,1-.2.52.6.6,0,0,1-.48.24.78.78,0,0,1-.43-.1,2,2,0,0,1-.39-.32,2.52,2.52,0,0,0-.65-.5,4.53,4.53,0,0,0-1-.3,7.54,7.54,0,0,0-1.38-.12,4.9,4.9,0,0,0-2.63.74,5.22,5.22,0,0,0-1.88,2,5.81,5.81,0,0,0-.68,2.78,6,6,0,0,0,.66,2.84,4.9,4.9,0,0,0,4.48,2.7,5.56,5.56,0,0,0,1.51-.16,5,5,0,0,0,1.12-.45,5.3,5.3,0,0,0,.63-.47,2.78,2.78,0,0,1,.36-.27.7.7,0,0,1,.34-.1.65.65,0,0,1,.5.2.69.69,0,0,1,.19.51,1.36,1.36,0,0,1-.63,1,5.47,5.47,0,0,1-1.73.88,7.87,7.87,0,0,1-2.45.37,6.42,6.42,0,0,1-3.41-.91,6.22,6.22,0,0,1-2.32-2.5,7.76,7.76,0,0,1-.82-3.6,7.39,7.39,0,0,1,.84-3.5,6.47,6.47,0,0,1,5.85-3.48A8.82,8.82,0,0,1,401.36,89.86Z"/><path d="M406.68,87.65a.86.86,0,0,1-.29-.72v-.26a.89.89,0,0,1,.3-.72,1.22,1.22,0,0,1,.82-.25c.7,0,1.05.32,1.05,1v.26a.91.91,0,0,1-.27.72,1.15,1.15,0,0,1-.8.25A1.17,1.17,0,0,1,406.68,87.65Zm1.37,15.43a.75.75,0,0,1-.56.22.77.77,0,0,1-.57-.22.79.79,0,0,1-.22-.56V90.45a.75.75,0,0,1,.79-.79.79.79,0,0,1,.56.22.78.78,0,0,1,.23.57v12.07A.75.75,0,0,1,408.05,103.08Z"/><path d="M422.27,91a5.92,5.92,0,0,1,1.14,3.79v7.72a.75.75,0,0,1-.23.56.82.82,0,0,1-1.12,0,.75.75,0,0,1-.22-.56V94.88a4.3,4.3,0,0,0-.85-2.77,3.21,3.21,0,0,0-2.64-1.06A4.74,4.74,0,0,0,414.57,93a3.21,3.21,0,0,0-.63,1.9v7.64a.75.75,0,0,1-.22.56.84.84,0,0,1-1.13,0,.75.75,0,0,1-.22-.56V90.76a.79.79,0,1,1,1.57,0v1.45a5.47,5.47,0,0,1,2-1.88,5.41,5.41,0,0,1,2.71-.75A4.31,4.31,0,0,1,422.27,91Z"/><path d="M439.43,90.12a.8.8,0,0,1,.22.59v11.36a6.77,6.77,0,0,1-.85,3.5,5.66,5.66,0,0,1-2.33,2.22,7.31,7.31,0,0,1-3.4.76,8.9,8.9,0,0,1-1.93-.23,7.58,7.58,0,0,1-1.73-.61c-.48-.24-.76-.5-.83-.76a.58.58,0,0,1-.18-.42.49.49,0,0,1,.24-.42.4.4,0,0,1,.26-.08,1.94,1.94,0,0,1,.6.19l.55.23a8.49,8.49,0,0,0,3.05.63,5,5,0,0,0,3.66-1.32,4.86,4.86,0,0,0,1.32-3.58v-1.63a4.93,4.93,0,0,1-2.07,2.22,6.11,6.11,0,0,1-6.23-.11,6.39,6.39,0,0,1-2.3-2.5,8.07,8.07,0,0,1,0-7.17,6.39,6.39,0,0,1,2.3-2.5,6,6,0,0,1,3.24-.91,5.8,5.8,0,0,1,3,.83,5.52,5.52,0,0,1,2,2V90.71a.81.81,0,0,1,.22-.58.78.78,0,0,1,.57-.23A.76.76,0,0,1,439.43,90.12Zm-3.67,11.28a4.73,4.73,0,0,0,1.78-2,6.64,6.64,0,0,0,0-5.73,4.74,4.74,0,0,0-1.78-2,4.81,4.81,0,0,0-2.59-.7,4.68,4.68,0,0,0-2.55.72,5,5,0,0,0-1.79,2,6.08,6.08,0,0,0-.64,2.81,6.15,6.15,0,0,0,.64,2.84,5,5,0,0,0,1.79,2,4.68,4.68,0,0,0,2.55.72A4.81,4.81,0,0,0,435.76,101.4Z"/><path d="M453,102.94a9.46,9.46,0,0,1-2.82-2,.79.79,0,0,1-.32-.63.87.87,0,0,1,.25-.58.75.75,0,0,1,1.14,0,6.62,6.62,0,0,0,5.12,2.26,5.3,5.3,0,0,0,3.14-.89,2.76,2.76,0,0,0,1.24-2.34,2.82,2.82,0,0,0-.61-1.87,4.59,4.59,0,0,0-1.62-1.22,19.93,19.93,0,0,0-2.54-1,15.49,15.49,0,0,1-2.82-1.11A5.16,5.16,0,0,1,451.28,92a4.37,4.37,0,0,1-.71-2.56,4.16,4.16,0,0,1,.75-2.46,4.91,4.91,0,0,1,2.1-1.7,7.39,7.39,0,0,1,3.1-.61,8.55,8.55,0,0,1,3,.53,5.38,5.38,0,0,1,2.24,1.54,1.3,1.3,0,0,1,.4.76.74.74,0,0,1-.27.54.82.82,0,0,1-.57.25.58.58,0,0,1-.45-.19A5.11,5.11,0,0,0,459,86.75a6,6,0,0,0-2.47-.53,5.3,5.3,0,0,0-3.12.86,2.89,2.89,0,0,0,0,4.65,11.88,11.88,0,0,0,3.31,1.5,19.82,19.82,0,0,1,3,1.13A5,5,0,0,1,461.63,96a4.75,4.75,0,0,1,.75,2.79,4.09,4.09,0,0,1-.78,2.43,5.24,5.24,0,0,1-2.15,1.72,7.46,7.46,0,0,1-3.14.63A8.36,8.36,0,0,1,453,102.94Z"/><path d="M477.23,100.16a6.64,6.64,0,0,1-9.16,2.5,6.39,6.39,0,0,1-2.39-2.5,7.84,7.84,0,0,1,0-7.14,6.61,6.61,0,0,1,9.16-2.52A6.51,6.51,0,0,1,477.23,93a7.84,7.84,0,0,1,0,7.14Zm-1.37-6.41a5,5,0,0,0-1.82-2,4.84,4.84,0,0,0-2.59-.72,4.77,4.77,0,0,0-2.57.72,5.11,5.11,0,0,0-1.82,2,5.92,5.92,0,0,0-.67,2.84,5.86,5.86,0,0,0,.67,2.81,5.11,5.11,0,0,0,1.82,2,4.77,4.77,0,0,0,2.57.72,4.88,4.88,0,0,0,4.41-2.68,6.42,6.42,0,0,0,0-5.67Z"/><path d="M482.83,103.08a.77.77,0,0,1-.57.22.75.75,0,0,1-.78-.78V84.68a.77.77,0,0,1,.22-.57.75.75,0,0,1,.56-.22.75.75,0,0,1,.79.79v17.84A.75.75,0,0,1,482.83,103.08Z"/><path d="M497.81,90.2a.76.76,0,0,1,.22.56v7.4a5.2,5.2,0,0,1-1.44,4,5.53,5.53,0,0,1-4,1.38,5.45,5.45,0,0,1-4-1.38,5.24,5.24,0,0,1-1.43-4v-7.4a.8.8,0,0,1,.22-.56A.77.77,0,0,1,488,90a.75.75,0,0,1,.56.22.77.77,0,0,1,.23.56v7.4a3.9,3.9,0,0,0,1,2.88,3.86,3.86,0,0,0,2.81,1,4,4,0,0,0,2.85-1,3.87,3.87,0,0,0,1-2.88v-7.4a.8.8,0,0,1,1.35-.56Z"/><path d="M504.77,91.42v8.79a1.91,1.91,0,0,0,.37,1.35,1.33,1.33,0,0,0,1,.35,1.68,1.68,0,0,0,.4-.06,1.59,1.59,0,0,1,.36-.07.54.54,0,0,1,.41.2.69.69,0,0,1,.17.46.73.73,0,0,1-.42.62,2,2,0,0,1-1,.24,5.36,5.36,0,0,1-1.26-.13,2,2,0,0,1-1.06-.78,3.45,3.45,0,0,1-.51-2.1V91.42h-1.92a.72.72,0,0,1-.53-.21.7.7,0,0,1-.23-.53.68.68,0,0,1,.23-.52.72.72,0,0,1,.53-.21h1.92V87a.77.77,0,0,1,.22-.57.84.84,0,0,1,1.13,0,.77.77,0,0,1,.22.57V90h2.63a.68.68,0,0,1,.51.24.72.72,0,0,1,.22.52.66.66,0,0,1-.21.51.73.73,0,0,1-.52.2Z"/><path d="M511,87.65a.86.86,0,0,1-.29-.72v-.26A.89.89,0,0,1,511,86a1.22,1.22,0,0,1,.82-.25c.7,0,1.05.32,1.05,1v.26a.91.91,0,0,1-.27.72,1.15,1.15,0,0,1-.8.25A1.17,1.17,0,0,1,511,87.65Zm1.37,15.43a.75.75,0,0,1-.56.22.77.77,0,0,1-.57-.22.79.79,0,0,1-.22-.56V90.45a.75.75,0,0,1,.79-.79.79.79,0,0,1,.56.22.78.78,0,0,1,.23.57v12.07A.75.75,0,0,1,512.34,103.08Z"/><path d="M528.18,100.16a6.57,6.57,0,0,1-11.55,0,7.84,7.84,0,0,1,0-7.14A6.51,6.51,0,0,1,519,90.5a6.69,6.69,0,0,1,6.77,0A6.51,6.51,0,0,1,528.18,93a7.84,7.84,0,0,1,0,7.14Zm-1.37-6.41a5,5,0,0,0-1.82-2,4.84,4.84,0,0,0-2.59-.72,4.77,4.77,0,0,0-2.57.72,5.19,5.19,0,0,0-1.82,2,5.92,5.92,0,0,0-.67,2.84A5.86,5.86,0,0,0,518,99.4a5.19,5.19,0,0,0,1.82,2,4.77,4.77,0,0,0,2.57.72,4.88,4.88,0,0,0,4.41-2.68,6.42,6.42,0,0,0,0-5.67Z"/><path d="M542.17,91a5.92,5.92,0,0,1,1.14,3.79v7.72a.72.72,0,0,1-.23.56.82.82,0,0,1-1.12,0,.75.75,0,0,1-.22-.56V94.88a4.3,4.3,0,0,0-.85-2.77,3.21,3.21,0,0,0-2.64-1.06,4.61,4.61,0,0,0-2.14.53,4.56,4.56,0,0,0-1.64,1.4,3.21,3.21,0,0,0-.63,1.9v7.64a.75.75,0,0,1-.22.56.84.84,0,0,1-1.13,0,.75.75,0,0,1-.22-.56V90.76a.79.79,0,1,1,1.57,0v1.45a5.55,5.55,0,0,1,2-1.88,5.41,5.41,0,0,1,2.71-.75A4.31,4.31,0,0,1,542.17,91Z"/></g></g></svg>