<svg xmlns="http://www.w3.org/2000/svg" viewBox="0 0 54.66 54.66"><g id="Layer_2" data-name="Layer 2"><g id="Layer_1-2" data-name="Layer 1"><path d="M54.62,39.89a12.86,12.86,0,0,0-.59-3,13.66,13.66,0,1,0-15.68,17.5c.59.12,1.21.18,1.81.27h1.67c.64-.09,1.28-.15,1.9-.28a13.69,13.69,0,0,0,10.72-11c.09-.52.14-1,.21-1.57V40.16A2.51,2.51,0,0,1,54.62,39.89ZM41,51.25A10.26,10.26,0,1,1,51.25,41,10.28,10.28,0,0,1,41,51.25Z"/><path d="M4,41c-.48,0-.54-.07-.54-.56V17.1H41v6.81h3.4V10.69a3.72,3.72,0,0,0-1.86-3.37,5.74,5.74,0,0,0-3.25-.47v.33c0,.53,0,1.08,0,1.61a3.4,3.4,0,0,1-3,3.14,3.35,3.35,0,0,1-3.69-2.54,13.24,13.24,0,0,1-.13-2.1c0-.14,0-.29,0-.44H12v.32c0,.53,0,1.06,0,1.59a3.4,3.4,0,0,1-6.74.42,14.8,14.8,0,0,1-.07-2c0-.11,0-.22,0-.34H3.8A3.71,3.71,0,0,0,0,10.63v30A3.71,3.71,0,0,0,3.79,44.4H23.62l.29,0V41H4Z"/><path d="M23.9,37.57V30.76H17.1v6.81Z"/><path d="M13.65,37.57V30.76H6.85v6.81Z"/><path d="M13.65,20.52H6.85v6.8h6.8Z"/><path d="M23.9,20.53H17.09v6.78H23.9Z"/><path d="M34.15,27.31V20.52h-6.8v6.79Z"/><path d="M34.18,5.1c0,1.2,0,2.4,0,3.6a1.64,1.64,0,0,0,1.64,1.55,1.67,1.67,0,0,0,1.71-1.44,7.8,7.8,0,0,0,0-1.08c0-2,0-4,0-5.94a1.71,1.71,0,1,0-3.41,0c0,1.11,0,2.22,0,3.32Z"/><path d="M6.85,5.13c0,1.19,0,2.38,0,3.57a1.69,1.69,0,0,0,3.35.11,9.51,9.51,0,0,0,0-1.31c0-1.91,0-3.81,0-5.72a1.71,1.71,0,1,0-3.41,0c0,1.12,0,2.23,0,3.35Z"/><path d="M46.15,41H41V35.94a1.71,1.71,0,0,0-1.69-1.77,1.69,1.69,0,0,0-1.72,1.77v6.69a1.68,1.68,0,0,0,1.76,1.77h6.72a1.93,1.93,0,0,0,.63-.1,1.7,1.7,0,0,0-.55-3.3Z"/></g></g></svg>